<svg width="509" height="504" viewBox="0 0 509 504" fill="none" xmlns="http://www.w3.org/2000/svg">
<g clip-path="url(#clip0_77_12)">
<path d="M379.72 311.928H462.493V247.954H379.72V311.928Z" fill="#EBEBEB"/>
<path d="M385.619 306.35H395.596V295.057H385.619V306.35Z" fill="white"/>
<path d="M437.246 248.126H427.842V261.773H437.246V248.126Z" fill="#FAFAFA"/>
<path d="M437.246 298.087H427.842V311.733H437.246V298.087Z" fill="#FAFAFA"/>
<path d="M400.373 312.376C400.224 312.376 400.109 298.305 400.109 280.951C400.109 263.598 400.224 249.527 400.373 249.527C400.522 249.527 400.636 263.598 400.636 280.951C400.636 298.305 400.522 312.376 400.373 312.376Z" fill="#E0E0E0"/>
<path d="M345.951 422.098H488.771V311.722H345.951V422.098Z" fill="#EBEBEB"/>
<path d="M356.168 412.458H373.374V392.969H356.168V412.458Z" fill="white"/>
<path d="M445.207 312.009H428.987V335.56H445.207V312.009Z" fill="#FAFAFA"/>
<path d="M445.207 398.214H428.987V421.766H445.207V398.214Z" fill="#FAFAFA"/>
<path d="M381.61 422.856C381.358 422.856 381.151 398.582 381.151 368.637C381.151 338.693 381.358 314.419 381.61 314.419C381.862 314.419 382.056 338.693 382.056 368.637C382.056 398.582 381.862 422.856 381.61 422.856Z" fill="#E0E0E0"/>
<path d="M484.234 82.1541L491.886 97.6828L509 100.173L496.617 112.27L499.538 129.337L484.234 121.28L468.942 129.337L471.863 112.27L459.48 100.173L476.594 97.6828L484.234 82.1541Z" fill="#EBEBEB"/>
<path d="M28.6602 282.719L33.4827 292.509L44.2733 294.081L36.4725 301.702L38.3053 312.468L28.6602 307.383L19.0266 312.468L20.8594 301.702L13.0586 294.081L23.8491 292.509L28.6602 282.719Z" fill="#EBEBEB"/>
<path d="M34.6512 197.443L45.3501 219.181L69.2909 222.658L51.971 239.587L56.0604 263.471L34.6512 252.201L13.2304 263.471L17.3199 239.587L0 222.658L23.9408 219.181L34.6512 197.443Z" fill="#EBEBEB"/>
<path d="M477.43 152.291L482.035 161.657L492.356 163.16L484.899 170.46L486.651 180.755L477.43 175.889L468.197 180.755L469.962 170.46L462.493 163.16L472.814 161.657L477.43 152.291Z" fill="#EBEBEB"/>
<path d="M325.962 0.505005L330.578 9.87043L340.899 11.374L333.43 18.662L335.194 28.9571L325.962 24.1022L316.74 28.9571L318.504 18.662L311.036 11.374L321.357 9.87043L325.962 0.505005Z" fill="#EBEBEB"/>
<path d="M431.553 100.747L434.577 106.876L441.324 107.863L436.445 112.638L437.59 119.375L431.553 116.184L425.505 119.375L426.662 112.638L421.782 107.863L428.529 106.876L431.553 100.747Z" fill="#EBEBEB"/>
<path d="M152.855 410.288L158.731 422.225L171.893 424.141L162.374 433.438L164.619 446.568L152.855 440.37L141.09 446.568L143.336 433.438L133.817 424.141L146.967 422.225L152.855 410.288Z" fill="#EBEBEB"/>
<path d="M168.388 398.409L170.816 403.345L176.246 404.137L172.317 407.981L173.244 413.399L168.388 410.839L163.519 413.399L164.447 407.981L160.518 404.137L165.959 403.345L168.388 398.409Z" fill="#EBEBEB"/>
<path d="M385.63 352.684L390.808 363.186L402.366 364.861L394.004 373.045L395.974 384.579L385.63 379.128L375.287 384.579L377.257 373.045L368.895 364.861L380.453 363.186L385.63 352.684Z" fill="#D8C200"/>
<path d="M410.304 343.376L412.744 348.323L418.197 349.115L414.256 352.971L415.184 358.411L410.304 355.84L405.436 358.411L406.364 352.971L402.423 349.115L407.876 348.323L410.304 343.376Z" fill="#D8C200"/>
<path d="M377.967 70.0456L382.045 57.3518C378.159 49.5099 376.979 40.5978 378.689 32.0118C380.4 23.4258 384.905 15.651 391.499 9.90536C398.092 4.15975 406.402 0.767959 415.126 0.261385C423.85 -0.245189 432.495 2.16207 439.707 7.10602C446.919 12.05 452.29 19.2513 454.979 27.5818C457.668 35.9123 457.524 44.9013 454.568 53.1405C451.612 61.3797 446.011 68.4037 438.644 73.112C431.276 77.8202 422.558 79.9468 413.855 79.1585C405.364 78.579 397.328 75.0944 391.094 69.2881V69.2881L377.967 70.0456Z" fill="#FAFAFA"/>
<path d="M377.967 70.0456L378.838 69.9767L381.369 69.7931L391.094 69.1274C395.915 73.5946 401.852 76.672 408.277 78.0338C410.26 78.4754 412.275 78.7631 414.302 78.8945L417.509 79.0208C418.586 79.0208 419.697 78.8945 420.808 78.8372C430.857 77.9235 440.169 73.1681 446.811 65.558C450.554 61.3307 453.334 56.3371 454.956 50.9245C456.617 45.1407 456.954 39.0557 455.941 33.1233C455.689 31.5982 455.337 30.0914 454.887 28.6128C454.684 27.8638 454.435 27.1279 454.142 26.4091C453.856 25.6746 453.604 24.94 453.295 24.217C452.019 21.2979 450.404 18.5397 448.484 15.9993C447.527 14.7329 446.49 13.5292 445.379 12.3954C444.841 11.8173 444.267 11.273 443.661 10.7656C443.077 10.2492 442.516 9.68679 441.897 9.21622L440.018 7.816L439.079 7.12737L438.071 6.53055L436.089 5.38283C435.414 5.00408 434.703 4.71715 434.016 4.37283C428.751 1.8765 422.995 0.595066 417.17 0.622874C411.346 0.650682 405.602 1.98703 400.361 4.53351C391.28 8.90328 384.228 16.6102 380.67 26.0533C380.476 26.5813 380.292 27.1092 380.109 27.6257C379.902 28.1353 379.737 28.6612 379.617 29.1981C379.353 30.254 379.101 31.2984 378.849 32.3199C378.501 34.3214 378.264 36.3407 378.139 38.3684C377.882 44.9278 379.26 51.448 382.148 57.3403V57.3403L379.078 66.7287L378.265 69.1618C378.082 69.7127 377.978 69.9997 377.978 69.9997C377.978 69.9997 378.047 69.7357 378.219 69.1963L378.952 66.7861L381.896 57.2714V57.3632C378.931 51.4601 377.497 44.904 377.726 38.2995C377.834 36.2491 378.06 34.2066 378.402 32.1822C378.654 31.1492 378.918 30.0933 379.17 29.0259C379.292 28.4833 379.452 27.9501 379.651 27.4306C379.846 26.9026 380.029 26.3747 380.224 25.8353C382.137 20.6867 385.096 15.9921 388.914 12.0487C392.731 8.10536 397.325 4.99911 402.403 2.92661C407.481 0.85411 412.933 -0.139498 418.414 0.00868893C423.895 0.156876 429.286 1.44363 434.245 3.78749C434.944 4.12033 435.666 4.41874 436.353 4.80896L438.369 6.01407L439.377 6.62237L440.339 7.32248L442.241 8.73418C442.871 9.2277 443.443 9.79009 444.039 10.3066C444.65 10.8247 445.231 11.3765 445.78 11.9593C446.906 13.1162 447.958 14.3428 448.93 15.632C450.888 18.187 452.537 20.9645 453.844 23.9071C454.154 24.6416 454.406 25.3991 454.692 26.1337C454.996 26.8819 455.252 27.6486 455.46 28.4291C455.913 29.9342 456.265 31.4679 456.514 33.02C457.548 39.0405 457.203 45.2178 455.505 51.0852C453.879 56.6008 451.067 61.6932 447.269 66.0056C440.526 73.6879 431.093 78.4791 420.923 79.3881C419.778 79.3881 418.632 79.5488 417.578 79.5488L414.336 79.411C412.289 79.2676 410.256 78.9683 408.254 78.5158C401.806 77.101 395.865 73.9502 391.071 69.4029H391.163L381.346 69.9193L378.849 70.0341C378.242 70.0456 377.967 70.0456 377.967 70.0456Z" fill="#263238"/>
<path d="M394.989 38.2881L401.484 32.6527L412.435 43.9119L436.96 23.4365L442.16 29.9097L410.728 55.5613L394.989 38.2881Z" fill="#D8C200"/>
<path d="M310.005 352.19L90.3451 401.244C89.0737 401.535 87.7574 401.572 86.472 401.351C85.1865 401.13 83.9574 400.657 82.8554 399.958C81.7533 399.259 80.8002 398.349 80.0508 397.28C79.3015 396.21 78.7708 395.003 78.4893 393.727L7.25104 73.2248C6.96724 71.9549 6.93629 70.6413 7.15996 69.3594C7.38363 68.0775 7.85753 66.8523 8.55449 65.7542C9.25146 64.6561 10.1578 63.7065 11.2216 62.9599C12.2855 62.2133 13.4858 61.6843 14.754 61.4032L234.414 12.3495C235.682 12.065 236.994 12.0339 238.274 12.2579C239.554 12.4818 240.778 12.9565 241.875 13.6548C242.971 14.353 243.92 15.2611 244.667 16.3271C245.413 17.393 245.942 18.596 246.224 19.8671L317.508 340.369C317.792 341.639 317.823 342.952 317.599 344.234C317.375 345.516 316.901 346.741 316.204 347.84C315.507 348.938 314.601 349.887 313.537 350.634C312.473 351.38 311.273 351.909 310.005 352.19Z" fill="#E0E0E0"/>
<path d="M310.005 352.191L310.738 351.984C311.45 351.752 312.137 351.448 312.788 351.077C313.857 350.448 314.8 349.627 315.572 348.656C316.624 347.324 317.314 345.742 317.577 344.065C317.742 343.05 317.742 342.015 317.577 341C317.393 339.933 317.107 338.808 316.855 337.637C316.328 335.342 315.709 332.725 315.137 329.948C313.892 324.385 312.46 317.985 310.841 310.746C304.392 281.858 295.068 240.058 283.544 188.399C277.817 162.575 271.493 134.284 264.724 103.903C261.348 88.7229 257.854 73.0373 254.242 56.8468C252.448 48.7515 250.623 40.5453 248.767 32.2281C247.828 28.0733 246.9 23.8841 245.949 19.672C245.433 17.5725 244.227 15.7079 242.525 14.3778C240.824 13.0477 238.725 12.3293 236.567 12.338C235.491 12.3619 234.422 12.5161 233.383 12.7971L230.175 13.5087L223.726 14.9548L210.714 17.8586L184.23 23.7808L129.658 36.0041L14.8342 61.6213C12.407 62.1603 10.2804 63.6153 8.89595 65.6842C7.51153 67.7532 6.97575 70.2769 7.3999 72.7313C8.4423 77.6091 9.56488 82.4984 10.6302 87.3647C12.799 97.0821 14.9487 106.742 17.0793 116.345L29.6797 173.054C37.9502 210.229 45.9228 246.038 53.5175 280.24C61.1121 314.442 68.3172 346.808 75.0757 377.234C75.9157 381.06 76.7519 384.824 77.5843 388.527C78.0081 390.387 78.3861 392.269 78.8329 394.094C79.3141 395.891 80.3 397.513 81.6737 398.765C83.0386 399.999 84.721 400.826 86.5306 401.152C87.428 401.299 88.3409 401.326 89.2454 401.233C90.1389 401.118 91.0438 400.9 91.9373 400.693L102.602 398.318L143.072 389.296L265.205 362.107L298.424 354.738L307.061 352.833L310.005 352.191L307.072 352.879L298.435 354.83L265.216 362.279L143.107 389.629L102.682 398.685L92.0175 401.072C91.124 401.267 90.2305 401.497 89.2912 401.623C88.3521 401.719 87.4043 401.688 86.4733 401.531C84.5782 401.202 82.8165 400.336 81.3959 399.037C79.9753 397.737 78.9549 396.058 78.4549 394.197C77.9967 392.349 77.6187 390.49 77.1948 388.631C76.3624 384.905 75.5224 381.14 74.6747 377.337C67.9163 346.957 60.6883 314.499 53.0822 280.343C45.4761 246.187 37.5035 210.332 29.2216 173.157L16.6211 116.46C14.4905 106.865 12.3408 97.1969 10.172 87.4566C9.09523 82.5902 7.9841 77.7239 6.93024 72.8001C6.48928 70.229 7.05375 67.5864 8.50642 65.4214C9.95908 63.2563 12.1883 61.7351 14.7311 61.1737L129.567 35.5221L184.172 23.3791L210.645 17.4684L223.658 14.5646L230.118 13.0496L233.326 12.338C234.385 12.0629 235.473 11.9165 236.567 11.9019C238.803 11.9071 240.974 12.6578 242.737 14.0356C244.5 15.4133 245.755 17.3398 246.304 19.5113C247.243 23.7349 248.183 27.9126 249.11 32.0789C250.981 40.4037 252.822 48.5985 254.632 56.6631C258.213 72.846 261.699 88.5316 265.09 103.72C271.837 134.1 278.114 162.391 283.853 188.227C295.308 239.874 304.587 281.709 311.001 310.609C312.594 317.828 314.014 324.255 315.251 329.81C315.858 332.599 316.397 335.158 316.947 337.511C317.199 338.659 317.485 339.807 317.657 340.874C317.829 341.9 317.829 342.947 317.657 343.973C317.396 345.682 316.693 347.292 315.618 348.644C314.836 349.614 313.885 350.435 312.811 351.066C312.152 351.438 311.452 351.734 310.727 351.95L310.005 352.191Z" fill="#263238"/>
<g opacity="0.3">
<path opacity="0.3" d="M101.479 389.893L301.62 344.053L295.285 304.744L283.945 282.719L92.4872 358.078L101.479 389.893Z" fill="black"/>
</g>
<g opacity="0.3">
<path opacity="0.3" d="M185.031 24.1022L192.603 36.6239L194.081 43.2577L188.938 44.4054L185.031 24.1022Z" fill="black"/>
</g>
<path d="M18.6487 75.0841L88.0885 387.265L305.744 338.659L293.327 282.845L236.304 26.478L18.6487 75.0841Z" fill="white"/>
<path d="M18.6487 75.0841L236.292 26.2944H236.476V26.4895C255.789 113.246 279.878 221.511 305.95 338.67V338.911H305.721L88.077 387.495H87.8708V387.276C46.9882 202.929 19.061 76.9549 18.6372 75.0956C19.061 77.0008 47.1714 202.941 88.2947 387.276L88.0312 387.116L305.675 338.487L305.492 338.774C279.455 221.637 255.388 113.372 236.109 26.5928L236.338 26.742L18.6487 75.0841Z" fill="#263238"/>
<path d="M79.9268 37.9388L175.914 16.5118C177.791 16.0928 179.757 16.4381 181.38 17.4717C183.003 18.5053 184.15 20.1425 184.568 22.0232L190.113 46.9601L79.9487 71.5519L74.4087 46.6373C74.1979 45.703 74.1735 44.7361 74.3371 43.7923C74.5006 42.8484 74.8488 41.9464 75.3617 41.1379C75.8745 40.3294 76.5419 39.6306 77.3254 39.0816C78.1088 38.5325 78.9929 38.1442 79.9268 37.9388Z" fill="#263238"/>
<path d="M139.269 12.0741L111.239 18.3291L119.876 41.6738L140.987 36.9567L139.269 12.0741Z" fill="#263238"/>
<path d="M175.925 16.4928C175.925 16.619 154.493 21.5198 127.997 27.4421C101.502 33.3643 79.9784 38.0815 79.944 37.9552C79.9096 37.829 101.376 32.9282 127.894 27.0059C154.413 21.0837 175.856 16.401 175.925 16.4928Z" fill="#455A64"/>
<path d="M81.3071 65.8449C81.1811 65.8449 80.07 61.3688 78.8328 55.7909C77.5957 50.2129 76.6793 45.6565 76.8168 45.622C76.9542 45.5876 78.0539 50.0981 79.291 55.6876C80.5281 61.277 81.4331 65.8449 81.3071 65.8449Z" fill="#455A64"/>
<path d="M184.871 40.1818C183.951 37.1626 183.186 34.098 182.58 31C181.822 27.9721 181.218 24.9076 180.77 21.8182C181.689 24.8186 182.453 27.864 183.061 30.9426C183.821 33.9895 184.425 37.0732 184.871 40.1818V40.1818Z" fill="#455A64"/>
<path d="M180.507 45.6335C180.507 45.7597 158.502 50.7868 131.308 56.8582C104.114 62.9297 82.0516 67.7616 81.9944 67.6239C81.9371 67.4862 103.988 62.4706 131.251 56.3991C158.513 50.3277 180.438 45.5072 180.507 45.6335Z" fill="#455A64"/>
<path d="M122.533 136.441C122.533 136.579 107.699 139.999 89.3141 144.108C70.9289 148.217 56.0948 151.419 56.0146 151.293C55.9344 151.167 70.906 147.735 89.2339 143.638C107.562 139.54 122.499 136.315 122.533 136.441Z" fill="#263238"/>
<path d="M233.314 123.943C233.314 124.08 194.516 132.861 146.6 143.557C98.6843 154.254 59.7948 162.828 59.7719 162.701C59.749 162.575 98.5583 153.784 146.497 143.087C194.436 132.39 233.291 123.816 233.314 123.943Z" fill="#263238"/>
<path d="M235.708 134.708C235.708 134.835 196.899 143.615 148.983 154.323C101.067 165.031 62.1888 173.593 62.1544 173.456C62.1201 173.318 100.952 164.549 148.88 153.852C196.807 143.156 235.674 134.548 235.708 134.708Z" fill="#263238"/>
<path d="M238.091 145.405C238.091 145.531 199.293 154.311 151.377 165.008C103.461 175.705 64.5715 184.29 64.5371 184.152C64.5028 184.015 103.335 175.246 151.274 164.538C199.213 153.829 238.056 145.279 238.091 145.405Z" fill="#263238"/>
<path d="M240.473 156.136C240.473 156.263 201.676 165.043 153.76 175.739C105.844 186.436 66.9541 195.01 66.9312 194.883C66.9083 194.757 105.718 185.977 153.656 175.269C201.595 164.561 240.451 155.999 240.473 156.136Z" fill="#263238"/>
<path d="M242.868 166.845C242.868 166.982 204.058 175.762 156.142 186.459C108.226 197.156 69.3253 205.741 69.3253 205.615C69.3253 205.488 108.123 196.708 156.051 186C203.978 175.292 242.833 166.73 242.868 166.845Z" fill="#263238"/>
<path d="M102.968 242.376C102.922 242.262 102.887 242.142 102.865 242.021L102.613 240.999C102.396 240.069 102.086 238.772 101.708 237.154C100.941 233.837 99.8641 229.177 98.5812 223.6L98.8332 223.76L80.0471 227.984C80.0471 227.984 80.3907 227.444 80.2304 227.697V227.777V227.938L80.2991 228.259L80.448 228.902L80.7229 230.176C80.9177 231.025 81.101 231.863 81.2842 232.701C81.6508 234.354 82.0173 235.983 82.361 237.567C83.0597 240.724 83.7127 243.708 84.3198 246.451L84.0678 246.29L97.6419 243.363L101.502 242.56L102.533 242.365L102.9 242.296C102.9 242.296 102.808 242.296 102.579 242.399L101.605 242.64L97.8252 243.536L84.2167 246.784H84.0105V246.577L82.0174 237.705C81.6623 236.121 81.2957 234.491 80.8719 232.839C80.6886 232.001 80.4938 231.163 80.3106 230.314C80.2075 229.901 80.1158 229.464 80.0242 229.04L79.8753 228.397L79.8066 228.076V227.915V227.835V227.777C79.6462 228.041 80.0242 227.433 79.9898 227.49L98.7874 223.324H98.9936V223.531L101.949 237.303C102.281 238.91 102.545 240.196 102.739 241.114C102.82 241.527 102.877 241.848 102.934 242.112C102.957 242.198 102.969 242.287 102.968 242.376V242.376Z" fill="#263238"/>
<path d="M242.605 195.974L111.544 225.231L113.98 236.187L245.041 206.93L242.605 195.974Z" fill="#E0E0E0"/>
<path d="M110.231 275.041C110.188 274.921 110.153 274.798 110.128 274.673C110.059 274.409 109.979 274.065 109.876 273.652C109.658 272.722 109.349 271.437 108.971 269.818C108.203 266.49 107.127 261.784 105.844 256.252L106.096 256.413L87.3095 260.637C87.3095 260.706 87.6532 260.097 87.4928 260.361V260.419V260.499V260.66L87.5616 260.981L87.7105 261.624C87.8021 262.06 87.8937 262.484 87.9968 262.909L88.5467 265.423C88.9132 267.087 89.2798 268.705 89.6234 270.289C90.3222 273.445 90.9751 276.429 91.5822 279.172L91.3302 279.012L104.916 276.096L108.765 275.293L109.796 275.086C109.915 275.053 110.038 275.034 110.162 275.029L109.853 275.121L108.868 275.362L105.088 276.269L91.4219 279.425H91.2157V279.218L89.2225 270.346C88.8674 268.763 88.5009 267.133 88.077 265.48C87.8937 264.654 87.699 263.804 87.5157 262.967C87.4241 262.542 87.321 262.117 87.2294 261.681L87.0804 261.038L87.0117 260.717V260.556V260.419L87.195 260.12L105.981 256.011H106.187V256.206C107.402 261.865 108.478 266.536 109.143 269.979C109.475 271.586 109.738 272.871 109.933 273.79C110.013 274.203 110.071 274.524 110.128 274.788C110.173 274.867 110.208 274.952 110.231 275.041V275.041Z" fill="#263238"/>
<path d="M249.862 228.627L118.801 257.884L121.237 268.84L252.298 239.583L249.862 228.627Z" fill="#E0E0E0"/>
<path d="M117.493 307.693C117.493 307.693 117.493 307.556 117.39 307.326C117.287 307.096 117.241 306.718 117.138 306.305C116.921 305.375 116.611 304.089 116.233 302.471C115.466 299.154 114.389 294.437 113.106 288.905L113.358 289.066L94.5261 293.289C94.5261 293.358 94.8698 292.75 94.7094 293.014V293.094V293.175V293.335L94.7781 293.657L94.9271 294.299C95.0187 294.735 95.1103 295.16 95.2134 295.585L95.7633 298.098C96.1298 299.763 96.4964 301.381 96.84 302.965L98.7988 311.848L98.5468 311.699L112.132 308.772L115.981 307.969L117.012 307.762C117.134 307.749 117.257 307.749 117.379 307.762L117.069 307.854L116.084 308.095L112.304 309.002L98.6385 312.158H98.4323V311.951C97.8252 309.22 97.1493 306.213 96.4391 303.079C96.084 301.496 95.7174 299.877 95.2936 298.213C95.1103 297.387 94.9156 296.549 94.7323 295.7C94.6407 295.275 94.5376 294.85 94.446 294.426L94.3085 293.783L94.2283 293.462V293.289V293.094C94.0679 293.347 94.446 292.738 94.4116 292.807L113.209 288.641H113.415V288.848L116.371 302.62C116.703 304.227 116.966 305.513 117.161 306.442C117.241 306.844 117.31 307.165 117.356 307.429C117.414 307.511 117.46 307.599 117.493 307.693V307.693Z" fill="#263238"/>
<path d="M257.121 261.292L126.06 290.548L128.496 301.504L259.558 272.248L257.121 261.292Z" fill="#E0E0E0"/>
<path d="M84.9154 235.628L86.8857 232.529L92.7391 235.788L100.265 224.403L103.186 226.411L93.4608 240.758L84.9154 235.628Z" fill="#D8C200"/>
<path d="M91.9373 267.19L93.9075 264.091L99.7495 267.351L107.287 255.965L110.196 257.974L100.483 272.32L91.9373 267.19Z" fill="#D8C200"/>
<path d="M99.131 299.556L101.101 296.457L106.955 299.705L114.481 288.331L117.402 290.34L107.676 304.686L99.131 299.556Z" fill="#D8C200"/>
<path d="M159.132 340.151C159.132 340.289 148.089 342.871 134.412 345.89C120.735 348.908 109.624 351.307 109.601 351.181C109.578 351.054 120.632 348.472 134.309 345.442C147.986 342.412 159.098 340.036 159.132 340.151Z" fill="#263238"/>
<path d="M183.806 334.252C180.816 335.174 177.78 335.941 174.711 336.547C171.688 337.3 168.629 337.902 165.547 338.349C168.533 337.429 171.565 336.662 174.631 336.054C179.659 334.94 183.783 334.125 183.806 334.252Z" fill="#263238"/>
<path d="M265.525 308.485C265.525 308.611 255.594 310.953 243.291 313.696C230.989 316.439 220.977 318.562 220.954 318.436C220.931 318.31 230.874 315.98 243.188 313.225C255.502 310.471 265.503 308.359 265.525 308.485Z" fill="#263238"/>
<path d="M254.895 338.693C254.895 338.693 254.998 338.383 255.113 337.787C255.264 336.904 255.217 335.998 254.975 335.135C254.568 333.771 254.039 332.445 253.395 331.176C252.481 329.491 251.946 327.626 251.825 325.713C251.852 324.535 252.125 323.376 252.626 322.311C253.127 321.245 253.846 320.297 254.735 319.526C255.777 318.66 257.023 318.075 258.354 317.828C259.686 317.581 261.058 317.679 262.341 318.115C263.749 318.544 265.005 319.368 265.961 320.49C266.469 321.095 266.771 321.847 266.82 322.637C266.833 323.061 266.71 323.478 266.468 323.828C266.227 324.177 265.881 324.439 265.48 324.576C264.73 324.819 263.965 325.007 263.189 325.139L260.898 325.609C259.363 325.919 257.805 326.195 256.201 326.401C253.095 326.85 249.942 326.87 246.831 326.459C245.425 326.155 243.957 326.393 242.719 327.124C241.734 328.118 240.901 329.251 240.244 330.487C239.846 331.096 239.292 331.587 238.641 331.91C237.978 332.203 237.23 332.236 236.544 332.002C235.366 331.477 234.245 330.831 233.2 330.074C232.714 329.751 232.162 329.543 231.584 329.466C231.044 329.405 230.5 329.54 230.049 329.844C229.257 330.571 228.601 331.434 228.114 332.392C227.592 333.215 226.881 333.899 226.039 334.386C225.198 334.874 224.251 335.15 223.28 335.193C221.81 335.252 220.375 334.742 219.27 333.77C218.576 333.169 218.031 332.414 217.678 331.566C217.555 331.275 217.466 330.971 217.415 330.659C217.415 330.659 217.518 330.969 217.77 331.532C218.141 332.343 218.694 333.057 219.385 333.62C220.462 334.534 221.847 335.002 223.257 334.929C224.183 334.881 225.084 334.609 225.882 334.135C226.681 333.661 227.352 333 227.839 332.209C228.342 331.205 229.026 330.302 229.855 329.546C230.376 329.183 231.009 329.016 231.642 329.075C232.269 329.169 232.869 329.392 233.406 329.73C234.434 330.459 235.532 331.085 236.682 331.6C237.27 331.799 237.912 331.77 238.48 331.52C239.063 331.23 239.552 330.78 239.889 330.223C240.57 328.955 241.435 327.794 242.455 326.78C243.09 326.326 243.833 326.049 244.609 325.977C245.37 325.895 246.138 325.895 246.9 325.977C249.977 326.376 253.094 326.357 256.167 325.919C257.747 325.713 259.294 325.426 260.829 325.127L263.12 324.668C263.855 324.532 264.582 324.352 265.296 324.129C265.61 324.029 265.883 323.829 266.073 323.56C266.263 323.291 266.361 322.966 266.35 322.637C266.298 321.949 266.034 321.296 265.594 320.766C264.69 319.688 263.498 318.892 262.158 318.47C260.943 318.057 259.643 317.96 258.38 318.189C257.118 318.418 255.934 318.965 254.941 319.779C254.088 320.507 253.396 321.406 252.91 322.418C252.425 323.43 252.157 324.533 252.123 325.655C252.226 327.526 252.726 329.353 253.589 331.015C254.223 332.303 254.733 333.648 255.113 335.032C255.337 335.919 255.356 336.845 255.17 337.741C255.116 338.068 255.024 338.388 254.895 338.693V338.693Z" fill="#263238"/>
<path d="M278.573 324.002C278.38 324.08 278.18 324.142 277.977 324.186L276.236 324.599L269.844 326.08C264.46 327.342 257.014 329.11 248.824 331.187C240.634 333.265 233.245 335.273 227.919 336.742L221.596 338.487L219.866 338.946C219.668 339.008 219.465 339.054 219.259 339.084C219.443 338.983 219.64 338.906 219.843 338.854L221.538 338.315C223.016 337.844 225.158 337.167 227.816 336.421C233.142 334.86 240.508 332.805 248.71 330.682C256.911 328.559 264.357 326.883 269.775 325.724C272.479 325.139 274.678 324.68 276.201 324.381L277.954 324.048C278.158 324.014 278.365 323.999 278.573 324.002Z" fill="#263238"/>
<path d="M184.605 72.1658L95.6395 92.0254L99.3636 108.773L188.329 88.9137L184.605 72.1658Z" fill="#E0E0E0"/>
<path d="M268.767 343.938L297.519 496.092L323.785 447.463L373.568 476.742L320.715 328.582L268.767 343.938Z" fill="#D8C200"/>
<g opacity="0.3">
<path opacity="0.3" d="M278.447 395.115C281.183 395.632 284.003 395.475 286.665 394.657C289.327 393.839 291.751 392.386 293.727 390.421C296.351 387.713 298.092 384.017 301.391 382.204C304.358 380.574 308.012 380.803 311.276 381.71C314.541 382.617 317.611 384.12 320.876 384.97C324.097 385.792 327.449 385.964 330.738 385.475C334.026 384.987 337.184 383.847 340.028 382.123L331.735 359.054L293.246 354.233L274.918 376.327L278.447 395.115Z" fill="black"/>
</g>
<path d="M321.918 441.426C321.758 441.426 317.473 425.656 312.353 406.134C307.233 386.611 303.189 370.726 303.372 370.692C303.556 370.657 307.806 386.439 312.926 405.984C318.046 425.53 322.078 441.38 321.918 441.426Z" fill="#263238"/>
<path d="M272.983 351.858L244.242 504L217.965 455.371L168.181 484.649L221.034 336.501L272.983 351.858Z" fill="#D8C200"/>
<g opacity="0.3">
<path opacity="0.3" d="M205.227 380.815C205.227 380.815 213.405 387.552 223.154 384.453C232.902 381.354 238.961 380.689 244.242 384.453C249.523 388.218 263.807 400.464 263.807 400.464L267.118 382.915L247.931 356.517L227.907 360.569L213.657 361.958L208.354 372.023L205.227 380.815Z" fill="black"/>
</g>
<path d="M441.496 214.521C441.496 225.436 427.578 234.836 425.539 245.154C423.443 255.782 432.676 269.795 428.632 279.586C424.588 289.376 408.013 292.888 402.137 301.737C396.26 310.586 399.353 327.159 391.827 334.711C384.301 342.263 367.772 339.084 358.917 345.04C350.063 350.997 346.741 367.455 336.809 371.587C327.05 375.639 313.063 366.388 302.445 368.488C292.135 370.531 282.765 384.476 271.871 384.476C260.978 384.476 251.585 370.531 241.287 368.488C230.679 366.388 216.693 375.639 206.922 371.587C197.151 367.536 193.657 350.928 184.825 345.04C175.994 339.152 159.453 342.251 151.904 334.711C144.355 327.17 147.539 310.609 141.594 301.737C135.649 292.865 119.223 289.536 115.111 279.586C110.998 269.635 120.3 255.793 118.203 245.154C116.164 234.824 102.235 225.436 102.235 214.521C102.235 203.606 116.164 194.195 118.203 183.877C120.3 173.249 111.056 159.235 115.111 149.445C119.166 139.655 135.729 136.143 141.594 127.306C147.459 118.468 144.378 101.883 151.904 94.3199C159.43 86.7564 175.959 89.9471 184.825 83.9904C193.691 78.0337 196.99 61.5754 206.922 57.4551C216.853 53.3347 230.668 62.6542 241.287 60.5539C251.596 58.511 260.978 44.5546 271.871 44.5546C282.765 44.5546 292.147 58.511 302.445 60.5539C313.052 62.6542 327.038 53.3921 336.809 57.4551C346.741 61.5754 350.086 78.1141 358.917 83.9904C367.749 89.8668 384.29 86.7794 391.827 94.3199C399.365 101.86 396.192 118.422 402.137 127.306C408.082 136.189 424.508 139.494 428.632 149.445C432.756 159.396 423.443 173.237 425.539 183.877C427.578 194.195 441.496 203.572 441.496 214.521Z" fill="#D8C200"/>
<path d="M232.18 119.249C232.18 119.249 232.054 119.099 231.871 118.778C231.687 118.457 231.401 117.94 231.092 117.378C230.416 116.161 229.488 114.371 228.388 112.144C226.178 107.691 223.314 101.424 220.553 94.3544C217.793 87.2844 215.673 80.7194 214.287 75.9908C213.6 73.592 213.073 71.6524 212.741 70.2522C212.592 69.6324 212.466 69.1045 212.374 68.6913C212.315 68.5136 212.284 68.3277 212.283 68.1404C212.372 68.3077 212.441 68.4849 212.489 68.6683L212.959 70.1948C213.405 71.6065 213.99 73.5117 214.688 75.8186C216.178 80.5587 218.365 87.0663 221.103 94.1822C223.841 101.298 226.659 107.507 228.766 112.006L231.298 117.32L231.974 118.766C232.057 118.921 232.126 119.082 232.18 119.249V119.249Z" fill="#263238"/>
<path d="M247.278 113.498C247.077 113.098 246.927 112.674 246.831 112.236C246.59 111.41 246.27 110.204 245.892 108.712C245.136 105.74 244.196 101.585 243.349 96.9712C242.501 92.3573 241.905 88.1452 241.562 85.0922C241.378 83.5658 241.264 82.3262 241.195 81.4654C241.142 81.0232 241.142 80.5763 241.195 80.1341C241.327 80.5602 241.415 80.9985 241.459 81.4425L242.008 85.0349C242.467 88.0763 243.154 92.2655 243.967 96.8679C244.781 101.47 245.685 105.625 246.327 108.621C246.636 110.021 246.888 111.214 247.094 112.179C247.199 112.611 247.261 113.053 247.278 113.498V113.498Z" fill="#263238"/>
<path d="M273.91 110.847C273.739 110.847 273.315 97.9697 272.96 82.0967C272.605 66.2237 272.444 53.3347 272.605 53.3232C272.765 53.3118 273.2 66.1892 273.555 82.0852C273.91 97.9812 274.071 110.847 273.91 110.847Z" fill="#263238"/>
<path d="M300.715 84.3921C300.875 84.3921 299.02 90.8768 296.58 98.7731C294.14 106.669 291.998 113.016 291.883 112.97C291.769 112.925 293.579 106.486 296.018 98.5895C298.458 90.6931 300.543 84.3462 300.715 84.3921Z" fill="#263238"/>
<path d="M311.643 117.665C311.665 117.475 311.716 117.289 311.792 117.114L312.307 115.599C312.766 114.29 313.453 112.408 314.369 110.09C316.168 105.499 318.734 99.083 321.666 92.0819C324.598 85.0808 327.325 78.7798 329.329 74.2348C330.314 72.0311 331.128 70.2177 331.746 68.8634L332.422 67.4173C332.594 67.0959 332.686 66.9238 332.709 66.9352C332.667 67.1159 332.609 67.2926 332.537 67.4632L331.952 68.9552L329.719 74.4069C327.76 79.0667 325.137 85.3562 322.216 92.3229C319.295 99.2896 316.706 105.579 314.759 110.25L312.525 115.691L311.895 117.16C311.832 117.338 311.747 117.507 311.643 117.665Z" fill="#263238"/>
<path d="M325.916 125.148C326.09 124.742 326.309 124.357 326.569 124C327.027 123.266 327.714 122.221 328.562 120.947C330.28 118.411 332.754 114.945 335.63 111.249C338.505 107.553 341.265 104.363 343.304 102.067C344.324 100.919 345.171 100.013 345.767 99.3929C346.054 99.0491 346.381 98.7408 346.741 98.4747C346.519 98.8663 346.25 99.2287 345.939 99.5536C345.32 100.311 344.541 101.241 343.648 102.343C341.689 104.707 338.997 107.978 336.122 111.674C333.247 115.369 330.738 118.778 328.928 121.257L326.786 124.184C326.53 124.535 326.239 124.858 325.916 125.148V125.148Z" fill="#263238"/>
<path d="M346.787 142.249C346.672 142.134 355.744 133.503 367.028 122.979C378.311 112.454 387.566 104.018 387.646 104.133C387.727 104.248 378.7 112.89 367.406 123.415C356.111 133.939 346.901 142.375 346.787 142.249Z" fill="#263238"/>
<path d="M383.19 145.818C382.086 146.518 380.938 147.147 379.754 147.701C377.6 148.848 374.679 150.444 371.449 152.291C368.219 154.139 365.241 155.677 363.03 156.71C361.884 157.227 361.037 157.628 360.395 157.858C360.082 158.021 359.746 158.137 359.399 158.202C360.503 157.502 361.651 156.874 362.835 156.32C364.989 155.172 367.91 153.577 371.14 151.729C374.37 149.881 377.348 148.286 379.559 147.31C380.705 146.794 381.552 146.392 382.194 146.163C382.505 145.994 382.842 145.878 383.19 145.818Z" fill="#263238"/>
<path d="M416.857 159.809C416.914 159.97 406.123 163.918 392.801 168.635C379.479 173.352 368.563 177.036 368.517 176.887C368.471 176.738 379.239 172.778 392.572 168.061C405.906 163.344 416.799 159.66 416.857 159.809Z" fill="#263238"/>
<path d="M427.578 221.178C427.578 221.339 415.837 220.363 401.392 218.986C386.948 217.608 375.241 216.357 375.264 216.185C375.286 216.013 386.993 217.012 401.45 218.389C415.906 219.766 427.59 221.017 427.578 221.178Z" fill="#263238"/>
<path d="M418.953 276.223C418.884 276.372 407.922 271.322 394.474 264.964C381.026 258.605 370.178 253.314 370.246 253.165C370.315 253.016 381.278 258.054 394.726 264.424C408.174 270.794 419.022 276.073 418.953 276.223Z" fill="#263238"/>
<path d="M382.893 328.593C382.767 328.697 374.874 319.503 365.241 308.072C355.607 296.641 347.909 287.264 348.058 287.16C348.207 287.057 356.077 296.239 365.71 307.682C375.344 319.125 383.019 328.479 382.893 328.593Z" fill="#263238"/>
<path d="M352.789 335.56C352.433 335.162 352.114 334.732 351.838 334.275C351.254 333.425 350.429 332.174 349.444 330.625C347.451 327.514 344.782 323.165 341.964 318.287C339.146 313.409 336.741 308.91 335.091 305.662C334.255 304.021 333.579 302.689 333.144 301.76C332.885 301.287 332.67 300.791 332.502 300.279C332.826 300.707 333.11 301.165 333.35 301.645C333.9 302.655 334.61 303.94 335.469 305.467C337.245 308.692 339.719 313.145 342.525 318.023C345.332 322.901 347.944 327.273 349.845 330.43C350.739 331.945 351.495 333.196 352.079 334.183C352.366 334.614 352.604 335.076 352.789 335.56Z" fill="#263238"/>
<path d="M334.095 361.843C334.095 361.843 333.98 361.694 333.797 361.372L333.052 359.972C332.399 358.744 331.517 356.954 330.463 354.727C328.356 350.262 325.641 343.996 323.063 336.903C320.486 329.81 318.539 323.268 317.336 318.539C316.706 316.152 316.191 314.201 315.939 312.858C315.813 312.238 315.709 311.71 315.618 311.297C315.572 311.117 315.545 310.932 315.538 310.746C315.631 310.91 315.697 311.089 315.732 311.274L316.168 312.801C316.569 314.224 317.095 316.118 317.737 318.424C319.089 323.165 321.093 329.684 323.671 336.788C326.248 343.892 328.883 350.125 330.899 354.635L333.304 359.949C333.556 360.523 333.774 361.005 333.957 361.395C334.021 361.538 334.068 361.688 334.095 361.843V361.843Z" fill="#263238"/>
<path d="M296.225 343.376C295.977 342.056 295.812 340.722 295.732 339.382C295.469 336.914 295.045 333.506 294.426 329.775C293.808 326.045 293.086 322.694 292.536 320.272C292.176 318.976 291.901 317.657 291.711 316.324C291.882 316.644 292.013 316.983 292.101 317.334C292.33 318 292.616 318.964 292.949 320.169C293.601 322.568 294.38 325.908 295.01 329.684C295.559 332.883 295.941 336.109 296.156 339.347C296.236 340.587 296.282 341.643 296.282 342.297C296.311 342.658 296.292 343.021 296.225 343.376V343.376Z" fill="#263238"/>
<path d="M271.448 376.419C271.421 376.225 271.421 376.028 271.448 375.834C271.448 375.375 271.448 374.812 271.448 374.146C271.448 372.677 271.448 370.554 271.448 367.937C271.539 362.692 271.78 355.462 272.192 347.485C272.605 339.508 273.12 332.278 273.544 327.055C273.75 324.439 273.945 322.327 274.094 320.869C274.174 320.203 274.231 319.641 274.277 319.193C274.29 318.994 274.329 318.798 274.391 318.608C274.418 318.806 274.418 319.007 274.391 319.205C274.391 319.653 274.392 320.215 274.311 320.892C274.22 322.442 274.105 324.53 273.956 327.078C273.647 332.392 273.235 339.577 272.811 347.508C272.387 355.439 272.089 362.715 271.894 367.949C271.803 370.497 271.723 372.54 271.665 374.146C271.665 374.824 271.597 375.375 271.574 375.834C271.561 376.034 271.518 376.231 271.448 376.419Z" fill="#263238"/>
<path d="M251.31 318.608C251.302 319.597 251.187 320.582 250.966 321.546C250.668 323.337 250.187 325.804 249.557 328.502C248.927 331.199 248.263 333.632 247.736 335.388C247.507 336.348 247.173 337.279 246.739 338.165C246.841 337.185 247.037 336.216 247.323 335.273L248.973 328.387C249.569 325.804 250.118 323.463 250.554 321.5C250.713 320.514 250.966 319.546 251.31 318.608V318.608Z" fill="#263238"/>
<path d="M214.895 301.128C213.394 303.614 211.721 305.992 209.889 308.244C208.208 310.614 206.375 312.872 204.402 315.004C205.899 312.516 207.572 310.138 209.408 307.888C211.081 305.512 212.914 303.254 214.895 301.128Z" fill="#263238"/>
<path d="M195.799 288.228C195.914 288.331 188.812 296.698 179.923 306.901C171.034 317.105 163.714 325.265 163.588 325.185C163.462 325.104 170.575 316.714 179.464 306.511C188.354 296.308 195.673 288.113 195.799 288.228Z" fill="#263238"/>
<path d="M186.234 273.985C183.425 276.699 180.477 279.266 177.403 281.674C172.42 285.783 168.296 289.02 168.239 288.894C171.05 286.185 173.998 283.622 177.07 281.215C180.002 278.653 183.061 276.239 186.234 273.985Z" fill="#263238"/>
<path d="M175.054 252.511C175.123 252.66 165.226 257.595 152.935 263.517C140.644 269.44 130.644 274.134 130.563 273.985C130.483 273.835 140.392 268.912 152.683 262.978C164.974 257.044 174.986 252.362 175.054 252.511Z" fill="#263238"/>
<path d="M170.564 241.802C170.235 241.947 169.888 242.048 169.533 242.101C168.857 242.262 167.884 242.468 166.681 242.686C164.264 243.145 160.896 243.65 157.162 244.029C153.427 244.408 150.025 244.568 147.563 244.603C146.337 244.603 145.34 244.603 144.653 244.603C144.295 244.626 143.935 244.591 143.588 244.5C144.902 244.319 146.225 244.215 147.551 244.19C150.002 244.041 153.382 243.811 157.104 243.432C160.827 243.053 164.184 242.617 166.612 242.285C167.916 242.03 169.237 241.869 170.564 241.802V241.802Z" fill="#263238"/>
<path d="M166.933 217.069C166.266 217.124 165.595 217.124 164.928 217.069L159.476 216.794C154.894 216.564 148.525 216.357 141.503 216.392C134.481 216.426 128.112 216.713 123.519 216.989L118.077 217.321C117.412 217.398 116.742 217.421 116.073 217.39C116.724 217.234 117.387 217.134 118.055 217.092C119.338 216.943 121.193 216.759 123.484 216.564C128.066 216.185 134.458 215.841 141.491 215.795C148.525 215.749 154.905 216.036 159.51 216.369C161.801 216.541 163.668 216.702 164.951 216.839C165.616 216.869 166.278 216.946 166.933 217.069V217.069Z" fill="#263238"/>
<path d="M169.178 195.354C169.178 195.515 161.721 193.575 152.614 191.027C143.507 188.479 136.165 186.299 136.211 186.138C136.256 185.977 143.668 187.905 152.775 190.453C161.881 193.001 169.224 195.193 169.178 195.354Z" fill="#263238"/>
<path d="M173.978 177.174C173.793 177.163 173.612 177.125 173.439 177.059L171.916 176.6C170.61 176.187 168.72 175.544 166.417 174.707C160.401 172.493 154.505 169.965 148.754 167.132C143.005 164.295 137.41 161.154 131.995 157.72C129.922 156.4 128.261 155.299 127.138 154.507L125.855 153.577C125.569 153.359 125.42 153.244 125.432 153.221C125.605 153.291 125.77 153.38 125.924 153.485L127.276 154.311C128.421 155.046 130.117 156.09 132.213 157.364C136.417 159.912 142.305 163.275 149.017 166.546C155.73 169.817 161.984 172.48 166.566 174.27C168.857 175.154 170.701 175.854 171.996 176.336L173.474 176.899C173.649 176.976 173.818 177.068 173.978 177.174V177.174Z" fill="#263238"/>
<path d="M184.757 158.811C184.665 158.937 178.869 155.012 171.813 150.03C164.756 145.049 159.109 140.906 159.212 140.768C159.315 140.631 165.1 144.567 172.168 149.548C179.235 154.53 184.848 158.707 184.757 158.811Z" fill="#263238"/>
<path d="M161.973 103.054C161.973 103.054 162.133 103.146 162.408 103.364L163.554 104.374L167.78 108.116L181.652 120.522L195.582 132.861L199.797 136.614L200.942 137.658C201.081 137.772 201.204 137.903 201.309 138.048C201.309 138.048 201.149 137.968 200.862 137.75L199.717 136.797C198.674 135.959 197.197 134.72 195.375 133.182C191.733 130.106 186.761 125.802 181.32 120.97C175.879 116.138 171.011 111.685 167.574 108.425C165.833 106.796 164.436 105.476 163.473 104.535L162.385 103.456C162.11 103.203 161.95 103.066 161.973 103.054Z" fill="#263238"/>
<path d="M197.701 104.099C197.701 104.099 198.01 104.351 198.48 104.89C198.949 105.43 199.625 106.222 200.415 107.186C202.008 109.183 204.127 112.006 206.326 115.22C208.526 118.434 210.37 121.441 211.641 123.656C212.283 124.803 212.787 125.664 213.108 126.296C213.306 126.61 213.46 126.949 213.566 127.306C212.726 126.21 211.961 125.06 211.275 123.862C209.912 121.705 208.01 118.755 205.822 115.541C203.634 112.328 201.572 109.493 200.095 107.438C199.231 106.374 198.432 105.259 197.701 104.099V104.099Z" fill="#263238"/>
<g opacity="0.2">
<path opacity="0.2" d="M151.915 94.3314L201.756 138.048L214.138 128.12L185.226 83.7265C185.226 83.7265 183.004 85.3562 177.208 87.0089C171.675 88.6043 155.237 89.0289 151.915 94.3314Z" fill="black"/>
</g>
<g opacity="0.2">
<path opacity="0.2" d="M207.392 57.3518L231.722 118.376L247.278 113.498L242.089 60.5654C242.089 60.5654 239.42 61.1966 233.474 60.4391C227.713 59.7046 213.749 54.23 207.392 57.3518Z" fill="black"/>
</g>
<g opacity="0.3">
<path opacity="0.3" d="M272.272 44.5776L273.91 110.847L288.481 111.547L303.235 60.6802C300.17 60.0703 297.254 58.8613 294.655 57.1222C289.615 53.8856 279.329 44.0382 272.272 44.5776Z" fill="black"/>
</g>
<g opacity="0.2">
<path opacity="0.2" d="M335.824 57.0993L311.643 118.193L324.77 124.494L358.047 83.3362C355.546 81.2206 353.413 78.7035 351.735 75.8875C348.597 70.8031 343.19 59.1307 335.824 57.0993Z" fill="black"/>
</g>
<g opacity="0.2">
<path opacity="0.2" d="M392.618 95.2152L347.577 142.272L357.612 155.826L401.621 126.399C400.172 123.724 399.192 120.821 398.723 117.814C397.669 112.075 397.521 101.654 392.618 95.2152Z" fill="black"/>
</g>
<g opacity="0.2">
<path opacity="0.2" d="M428.174 148.309L367.52 173.318L372.549 188.846L425.322 183.108C425.322 183.108 424.989 181.478 425.688 175.521C426.353 169.748 432.447 156.848 428.174 148.309Z" fill="black"/>
</g>
<g opacity="0.2">
<path opacity="0.2" d="M441.611 214.521L375.481 216.816L374.931 231.427L425.333 246.21C425.668 244.106 426.341 242.071 427.326 240.184C431.083 233.16 441.611 223.244 441.611 214.521Z" fill="black"/>
</g>
<g opacity="0.2">
<path opacity="0.2" d="M429.411 277.164L368.528 253.394L362.377 266.697L403.809 299.556C405.988 297.466 408.397 295.633 410.992 294.093C416.032 290.868 428.014 285.646 429.411 277.164Z" fill="black"/>
</g>
<g opacity="0.2">
<path opacity="0.2" d="M339.868 276.223L324.793 288.848C325.939 289.995 346.019 324.243 358.402 345.385C358.563 345.245 358.731 345.115 358.906 344.994C367.05 339.531 381.552 341.723 389.731 336.318L339.868 276.223Z" fill="black"/>
<path opacity="0.2" d="M312.17 300.187L289.672 307.877L300.325 369.074C301.017 368.829 301.726 368.634 302.445 368.488C313.052 366.388 327.038 375.639 336.809 371.587C338.147 371.012 339.391 370.238 340.498 369.292L312.17 300.187Z" fill="black"/>
<path opacity="0.2" d="M271.092 384.453L274.678 304.503L255.204 299.556L240.737 368.419L241.264 368.511C251.344 370.474 260.52 383.764 271.092 384.453Z" fill="black"/>
<path opacity="0.2" d="M222.18 290.925C222.18 290.925 196.475 325.426 183.027 343.996C183.649 344.31 184.253 344.658 184.837 345.04C193.668 350.963 197.002 367.455 206.933 371.587C207.392 371.771 207.861 371.92 208.331 372.058L244.242 303.952L222.18 290.925Z" fill="black"/>
<path opacity="0.2" d="M195.799 263.15L140.976 300.899C141.182 301.174 141.411 301.438 141.594 301.725C147.551 310.631 144.378 327.147 151.904 334.699C152.598 335.383 153.367 335.987 154.195 336.501C173.565 314.626 208.342 275.35 209.602 273.985L195.799 263.15Z" fill="black"/>
<path opacity="0.2" d="M183.233 236.19L118.41 246.68C119.452 257.102 111.25 270.255 115.111 279.574C115.343 280.144 115.623 280.693 115.947 281.215C138.628 269.899 186.017 246.359 187.987 246.233L183.233 236.19Z" fill="black"/>
<path opacity="0.2" d="M179.693 200.014L118.421 182.304C118.364 182.832 118.295 183.36 118.203 183.877C116.164 194.206 102.235 203.606 102.235 214.521C102.238 215.248 102.3 215.973 102.419 216.69H177.208L179.693 200.014Z" fill="black"/>
<path opacity="0.2" d="M115.363 148.975C138.272 161.267 183.027 186.138 183.027 186.138L194.046 165.169L142.293 126.146C142.064 126.548 141.846 126.961 141.594 127.294C135.764 136.005 119.807 139.403 115.363 148.975Z" fill="black"/>
</g>
<path d="M441.496 214.521L441.427 213.787C441.4 213.067 441.3 212.352 441.129 211.652C440.463 208.9 439.298 206.293 437.693 203.962C435.723 200.794 432.744 197.248 429.675 192.76C427.941 190.373 426.61 187.717 425.734 184.898C424.988 181.608 424.988 178.192 425.734 174.902C426.376 171.401 427.418 167.797 428.323 163.975C429.228 160.153 430.075 156.022 429.228 151.798C428.748 149.66 427.771 147.666 426.376 145.979C424.879 144.261 423.17 142.742 421.29 141.457C417.487 138.748 413.111 136.591 408.93 133.767C406.767 132.37 404.802 130.687 403.088 128.763C401.405 126.675 400.183 124.254 399.502 121.659C398.036 116.437 397.704 110.859 396.593 105.281C396.107 102.441 395.151 99.7018 393.763 97.1778C392.257 94.6368 389.97 92.652 387.245 91.5195C384.433 90.3871 381.488 89.6158 378.482 89.2241C375.447 88.7191 372.331 88.3633 369.215 87.8124C366.023 87.3511 362.928 86.3703 360.051 84.9086C357.199 83.1909 354.784 80.8336 352.995 78.0223C351.094 75.2907 349.456 72.3525 347.715 69.4488C346.047 66.4777 344.048 63.7055 341.758 61.1852C339.397 58.6356 336.177 57.0531 332.72 56.7435C329.188 56.6125 325.657 57.0267 322.25 57.9715C318.814 58.8094 315.286 59.8308 311.677 60.508C308.03 61.3693 304.225 61.2982 300.612 60.3014C297.09 58.9171 293.796 57.0096 290.841 54.6431C287.782 52.3477 284.804 50.0522 281.539 48.0093C278.275 45.9663 274.575 44.4858 270.726 44.9219H270.004C269.764 44.9219 269.535 45.0252 269.305 45.0711C268.836 45.1859 268.355 45.2662 267.897 45.404C266.974 45.698 266.071 46.0507 265.193 46.4599C263.421 47.3041 261.72 48.2906 260.107 49.4095C256.854 51.705 253.773 54.207 250.428 56.4795C248.763 57.6475 247 58.669 245.158 59.5324C243.272 60.3781 241.252 60.8869 239.19 61.036C235.057 61.0625 230.943 60.4786 226.98 59.3029C222.989 58.1614 218.919 57.3212 214.803 56.7894C212.748 56.5868 210.673 56.7264 208.663 57.2026C206.661 57.7602 204.815 58.7736 203.268 60.1637C200.106 62.9297 197.907 66.6483 195.708 70.2981C193.631 74.1199 191.204 77.7394 188.457 81.1097C187.002 82.7792 185.255 84.1678 183.302 85.207C181.308 86.1516 179.213 86.8677 177.059 87.3418C172.752 88.2944 168.353 88.6961 164.012 89.4766C159.67 90.257 155.237 91.4851 152.099 94.538C150.584 96.1549 149.414 98.0647 148.662 100.15C147.904 102.254 147.348 104.425 147.001 106.635C146.199 111.065 145.856 115.61 144.71 120.075C144.218 122.341 143.396 124.522 142.27 126.548C141.084 128.556 139.53 130.32 137.688 131.747C134.069 134.662 129.956 136.82 126.016 139.23C124.042 140.421 122.147 141.74 120.346 143.179C118.553 144.614 117.045 146.374 115.901 148.366C114.81 150.396 114.258 152.672 114.297 154.977C114.338 157.294 114.61 159.601 115.111 161.864C116.073 166.454 117.528 170.965 118.307 175.636C118.768 178.033 118.861 180.487 118.581 182.913C118.256 185.332 117.479 187.668 116.29 189.799C113.896 193.988 110.781 197.673 108.02 201.575C106.602 203.498 105.367 205.55 104.332 207.704C103.197 209.804 102.602 212.155 102.602 214.544C102.602 216.933 103.197 219.284 104.332 221.385C105.366 223.539 106.601 225.591 108.02 227.513C110.781 231.416 113.896 235.1 116.29 239.289C117.457 241.38 118.234 243.667 118.581 246.038C118.872 248.43 118.795 250.853 118.352 253.222C117.585 257.94 116.13 262.462 115.156 267.052C114.66 269.316 114.388 271.622 114.343 273.939C114.298 276.247 114.846 278.527 115.935 280.561C117.071 282.56 118.575 284.324 120.368 285.76C122.17 287.199 124.064 288.518 126.039 289.709C129.979 292.119 134.057 294.299 137.723 297.192C139.561 298.622 141.115 300.386 142.305 302.391C143.439 304.409 144.261 306.588 144.745 308.853C145.821 313.329 146.188 317.874 147.036 322.304C147.391 324.513 147.951 326.684 148.708 328.789C149.442 330.873 150.592 332.787 152.087 334.412C155.26 337.5 159.728 338.728 164.012 339.508C168.296 340.289 172.752 340.656 177.059 341.643C179.217 342.119 181.314 342.835 183.313 343.778C185.264 344.821 187.011 346.209 188.468 347.875C191.188 351.251 193.592 354.87 195.65 358.687C197.85 362.337 200.049 366.055 203.211 368.821C204.755 370.209 206.597 371.222 208.594 371.782C210.621 372.295 212.72 372.466 214.803 372.287C218.911 371.734 222.973 370.878 226.957 369.728C230.922 368.543 235.041 367.955 239.179 367.983C241.241 368.139 243.26 368.652 245.147 369.498C246.987 370.364 248.75 371.386 250.416 372.551C253.761 374.847 256.831 377.383 260.096 379.61C261.702 380.736 263.4 381.727 265.17 382.571C266.049 382.978 266.952 383.331 267.874 383.627C268.343 383.753 268.813 383.845 269.283 383.96L269.993 384.109H270.703C274.563 384.545 278.275 382.961 281.528 381.021C284.781 379.082 287.771 376.637 290.818 374.388C293.777 372.021 297.075 370.114 300.6 368.729C304.214 367.738 308.018 367.667 311.666 368.523C315.274 369.211 318.756 370.233 322.239 371.071C325.651 372.005 329.185 372.419 332.72 372.299C336.173 371.977 339.387 370.392 341.746 367.846C344.03 365.315 346.028 362.54 347.703 359.571C349.433 356.678 351.071 353.74 352.972 350.997C354.772 348.19 357.189 345.834 360.04 344.111C362.915 342.647 366.011 341.67 369.204 341.218C372.331 340.656 375.435 340.3 378.471 339.807C381.479 339.396 384.424 338.606 387.234 337.454C389.956 336.317 392.241 334.333 393.752 331.796C395.131 329.269 396.083 326.531 396.57 323.693C397.715 318.115 398.013 312.525 399.491 307.303C400.165 304.709 401.387 302.29 403.076 300.21C404.785 298.281 406.751 296.597 408.918 295.206C413.099 292.383 417.475 290.225 421.267 287.516C423.156 286.234 424.87 284.71 426.364 282.983C427.758 281.3 428.731 279.31 429.205 277.175C429.604 275.114 429.662 273.001 429.377 270.92C429.14 268.926 428.781 266.948 428.3 264.998C427.384 261.176 426.353 257.572 425.711 254.072C424.966 250.781 424.966 247.365 425.711 244.075C426.592 241.258 427.922 238.603 429.652 236.213C432.756 231.725 435.746 228.179 437.67 225.011C439.277 222.681 440.442 220.074 441.107 217.322C441.278 216.622 441.378 215.907 441.404 215.187L441.473 214.464C441.473 214.464 441.473 214.705 441.473 215.187C441.451 215.909 441.359 216.628 441.198 217.333C440.546 220.108 439.38 222.736 437.762 225.08C435.803 228.271 432.836 231.829 429.743 236.316C428.025 238.688 426.713 241.329 425.86 244.132C425.115 247.388 425.115 250.77 425.86 254.026C426.502 257.469 427.544 261.107 428.472 264.929C428.971 266.894 429.353 268.887 429.617 270.897C429.903 273.005 429.845 275.144 429.445 277.233C428.967 279.416 427.978 281.454 426.559 283.178C425.05 284.925 423.321 286.468 421.416 287.769C417.59 290.5 413.225 292.67 409.067 295.482C406.944 296.864 405.017 298.528 403.34 300.428C401.685 302.476 400.49 304.855 399.834 307.406C398.38 312.571 398.059 318.149 396.936 323.761C396.452 326.645 395.488 329.427 394.084 331.991C392.537 334.603 390.191 336.647 387.394 337.821C384.556 338.989 381.58 339.791 378.54 340.208C375.493 340.713 372.377 341.069 369.273 341.632C366.121 342.082 363.064 343.048 360.223 344.489C357.452 346.174 355.101 348.471 353.35 351.204C351.472 353.924 349.834 356.85 348.093 359.766C346.407 362.765 344.394 365.568 342.09 368.121C339.655 370.753 336.333 372.388 332.766 372.712C329.18 372.853 325.595 372.439 322.136 371.484C318.642 370.646 315.16 369.636 311.586 368.959C308.017 368.122 304.297 368.189 300.761 369.154C297.289 370.525 294.042 372.409 291.127 374.743C288.092 376.981 285.102 379.392 281.803 381.412C280.944 381.871 280.13 382.41 279.237 382.789C278.79 382.996 278.355 383.214 277.908 383.397L276.522 383.891C274.643 384.537 272.646 384.772 270.669 384.579L269.924 384.522C269.683 384.522 269.443 384.419 269.191 384.373C268.71 384.258 268.217 384.166 267.748 384.029C266.796 383.734 265.866 383.373 264.964 382.95C263.166 382.095 261.442 381.093 259.809 379.954C256.522 377.659 253.44 375.157 250.13 372.896C248.485 371.753 246.75 370.747 244.941 369.889C243.111 369.073 241.154 368.58 239.156 368.431C235.072 368.413 231.008 368.997 227.094 370.164C223.069 371.35 218.96 372.229 214.803 372.792C212.679 373 210.535 372.857 208.457 372.368C206.376 371.786 204.455 370.734 202.844 369.292C199.591 366.434 197.368 362.681 195.169 359.02C193.131 355.233 190.746 351.644 188.044 348.3C186.637 346.683 184.944 345.341 183.05 344.34C181.098 343.411 179.045 342.71 176.933 342.251C172.672 341.31 168.284 340.909 163.909 340.117C161.704 339.749 159.538 339.181 157.437 338.418C155.306 337.635 153.357 336.424 151.709 334.86C150.146 333.187 148.948 331.205 148.192 329.041C147.419 326.903 146.848 324.698 146.486 322.453C145.684 317.988 145.34 313.443 144.195 309.036C143.719 306.828 142.916 304.704 141.812 302.735C140.653 300.789 139.137 299.08 137.345 297.697C133.794 294.839 129.693 292.681 125.741 290.259C123.747 289.054 121.834 287.72 120.013 286.265C118.16 284.777 116.606 282.951 115.431 280.883C114.3 278.767 113.732 276.395 113.782 273.996C113.809 271.621 114.085 269.255 114.607 266.938C115.58 262.347 117.035 257.756 117.791 253.165C118.223 250.853 118.297 248.487 118.009 246.152C117.662 243.832 116.885 241.598 115.718 239.564C113.427 235.433 110.265 231.771 107.482 227.835C106.031 225.873 104.762 223.783 103.69 221.591C102.525 219.409 101.915 216.973 101.915 214.498C101.915 212.024 102.525 209.587 103.69 207.405C104.747 205.219 106.005 203.137 107.447 201.185C110.231 197.248 113.335 193.587 115.672 189.466C116.838 187.428 117.615 185.19 117.963 182.867C118.23 180.531 118.153 178.168 117.734 175.854C116.966 171.263 115.512 166.672 114.538 162.082C114.026 159.767 113.754 157.405 113.725 155.035C113.679 152.634 114.251 150.263 115.386 148.148C116.567 146.089 118.121 144.267 119.968 142.777C121.785 141.318 123.699 139.984 125.695 138.783C129.647 136.361 133.713 134.192 137.299 131.346C139.088 129.962 140.6 128.253 141.755 126.307C142.853 124.332 143.652 122.205 144.126 119.995C145.191 115.587 145.558 111.054 146.417 106.589C146.775 104.345 147.343 102.139 148.112 100.001C148.803 97.8128 150.005 95.8212 151.619 94.1923C153.233 92.5633 155.212 91.344 157.391 90.6358C159.492 89.8731 161.658 89.3045 163.863 88.9371C168.239 88.1452 172.626 87.7894 176.887 86.8138C178.995 86.3413 181.046 85.6409 183.004 84.725C184.892 83.7159 186.581 82.3702 187.987 80.7539C190.689 77.4098 193.074 73.8211 195.112 70.0341C197.311 66.3729 199.533 62.6198 202.798 59.7735C204.417 58.3099 206.355 57.2449 208.457 56.6631C210.535 56.179 212.679 56.0356 214.803 56.2385C218.935 56.792 223.02 57.6513 227.025 58.8094C230.938 59.9862 235.003 60.5742 239.087 60.5539C241.066 60.3958 243.004 59.8989 244.815 59.0848C246.63 58.2378 248.366 57.2316 250.004 56.0778C253.326 53.7823 256.407 51.2688 259.695 49.0308C261.325 47.8875 263.05 46.8854 264.85 46.0352C265.75 45.6146 266.676 45.2504 267.622 44.9449C268.103 44.8071 268.595 44.7268 269.076 44.612L269.798 44.4513H270.543C272.52 44.2642 274.515 44.4989 276.396 45.14L277.782 45.6335C278.229 45.8171 278.664 46.0352 279.111 46.2418C280.016 46.632 280.829 47.16 281.677 47.6191C284.987 49.6391 287.966 52.0493 291.013 54.2873C293.925 56.6194 297.168 58.5033 300.635 59.8768C304.17 60.8475 307.892 60.9145 311.46 60.0719C315.034 59.4062 318.516 58.3962 322.01 57.5584C325.469 56.6051 329.054 56.1871 332.64 56.3188C336.206 56.6471 339.526 58.2817 341.964 60.9097C344.271 63.4676 346.288 66.2737 347.978 69.2766C349.719 72.1804 351.346 75.1185 353.224 77.8272C354.972 80.5659 357.323 82.8667 360.097 84.5528C362.936 85.9994 365.993 86.9651 369.147 87.4107C372.251 87.973 375.367 88.3288 378.414 88.8338C381.453 89.2562 384.428 90.0582 387.268 91.2211C390.065 92.3939 392.413 94.4331 393.97 97.0401C395.369 99.6059 396.332 102.387 396.822 105.269C397.967 110.882 398.265 116.46 399.708 121.624C400.371 124.172 401.566 126.551 403.214 128.602C404.888 130.509 406.815 132.178 408.941 133.561C413.099 136.373 417.475 138.542 421.29 141.273C423.195 142.574 424.924 144.118 426.433 145.864C427.853 147.585 428.846 149.619 429.331 151.798C429.73 153.89 429.788 156.034 429.503 158.145C429.24 160.152 428.857 162.141 428.357 164.102C427.441 167.935 426.387 171.527 425.746 175.016C425 178.272 425 181.654 425.746 184.91C426.598 187.713 427.91 190.355 429.629 192.726C432.71 197.225 435.677 200.76 437.647 203.962C439.263 206.308 440.428 208.935 441.084 211.709C441.245 212.414 441.337 213.133 441.359 213.855C441.496 214.269 441.496 214.521 441.496 214.521Z" fill="#263238"/>
<path d="M240.004 372.287C240.164 372.287 235.937 389.503 230.565 410.644C225.192 431.785 220.702 448.898 220.542 448.863C220.381 448.829 224.608 431.647 229.981 410.495C235.353 389.342 239.889 372.195 240.004 372.287Z" fill="#263238"/>
<path d="M271.86 318.7C329.291 318.7 375.848 272.052 375.848 214.51C375.848 156.967 329.291 110.319 271.86 110.319C214.429 110.319 167.872 156.967 167.872 214.51C167.872 272.052 214.429 318.7 271.86 318.7Z" fill="white"/>
<path d="M207.838 178.414C206.406 179.848 198.525 194.218 197.804 206.074C197.082 217.93 198.789 284.475 198.789 284.475L199.098 288.894C217.816 310.827 285.858 343.468 347.142 288.779L350.578 247.84L340.464 161.175L305.297 152.555L297.061 139.184L242.169 152.062L237.266 163.654L207.838 178.414Z" fill="#08090A"/>
<path d="M293.292 104.34C295.709 95.3299 298.08 86.2629 298.917 76.9778C299.753 67.6928 298.985 58.0978 295.297 49.5358C294.735 48.2388 290.096 39.5735 288.699 39.7916C287.702 39.9408 290.703 48.0896 290.245 48.9734C285.835 57.5469 285.033 67.6124 286.305 77.173C287.616 86.4573 289.96 95.5656 293.292 104.328" fill="#263238"/>
<path d="M292.376 68.7601C291.94 45.381 277.988 26.1566 254.678 27.247L252.524 27.4765C242.098 28.5778 232.467 33.571 225.548 41.4629C218.628 49.3548 214.927 59.5671 215.181 70.0685C215.685 90.3259 216.487 112.706 217.758 123.472C220.381 145.749 242.959 146.874 242.959 146.874L244.002 161.531L253.566 171.941L297.908 144.395L292.376 68.7601Z" fill="#FFBF9D"/>
<path d="M243.016 147.046C243.016 147.046 257.14 146.392 271.104 135.397C271.104 135.397 266.43 155.608 244.001 155.941L243.016 147.046Z" fill="#FF9A6C"/>
<path d="M227.999 88.237C228.078 89.0748 228.482 89.848 229.125 90.3892C229.768 90.9305 230.598 91.1963 231.435 91.1293C231.843 91.119 232.245 91.0272 232.616 90.8592C232.988 90.6912 233.323 90.4504 233.6 90.151C233.878 89.8516 234.093 89.4996 234.232 89.1157C234.372 88.7318 234.434 88.3238 234.414 87.9156C234.332 87.079 233.927 86.3077 233.285 85.767C232.642 85.2263 231.814 84.9594 230.977 85.0234C230.569 85.032 230.167 85.1228 229.794 85.2903C229.422 85.4577 229.087 85.6985 228.809 85.9983C228.531 86.298 228.316 86.6507 228.177 87.0352C228.038 87.4198 227.977 87.8285 227.999 88.237V88.237Z" fill="#263238"/>
<path d="M220.92 78.8257C221.355 79.193 223.577 77.1615 227.002 76.8057C230.427 76.4499 233.108 77.9534 233.44 77.4369C233.601 77.2418 233.119 76.5302 231.94 75.8416C230.352 74.9743 228.536 74.6177 226.739 74.8201C224.959 75.0039 223.283 75.7471 221.951 76.9434C220.977 77.8731 220.702 78.6535 220.92 78.8257Z" fill="#263238"/>
<path d="M258.229 85.6661C258.307 86.5039 258.712 87.2771 259.355 87.8183C259.998 88.3595 260.828 88.6254 261.665 88.5584C262.073 88.5482 262.474 88.4563 262.846 88.2883C263.218 88.1203 263.552 87.8795 263.83 87.5801C264.107 87.2807 264.322 86.9287 264.462 86.5448C264.602 86.1609 264.663 85.7529 264.643 85.3447C264.565 84.506 264.16 83.7318 263.518 83.1887C262.875 82.6457 262.045 82.3771 261.207 82.441C260.799 82.4527 260.397 82.546 260.025 82.7152C259.653 82.8844 259.319 83.1263 259.041 83.4267C258.764 83.727 258.549 84.0798 258.41 84.4643C258.27 84.8488 258.209 85.2574 258.229 85.6661V85.6661Z" fill="#263238"/>
<path d="M254.586 76.668C255.021 77.0467 257.255 75.0038 260.668 74.648C264.082 74.2922 266.785 75.7957 267.106 75.2907C267.266 75.0841 266.797 74.3725 265.617 73.6953C264.027 72.8236 262.206 72.4668 260.405 72.6739C258.623 72.8498 256.945 73.5941 255.617 74.7972C254.655 75.7153 254.38 76.5073 254.586 76.668Z" fill="#263238"/>
<path d="M245.078 104.317C245.078 104.122 242.913 103.972 239.42 103.892C238.538 103.892 237.69 103.812 237.484 103.226C237.311 102.332 237.419 101.406 237.793 100.575L239.672 93.6887C242.26 83.8183 244.036 75.7383 243.646 75.635C243.257 75.5317 240.817 83.451 238.228 93.3329L236.464 100.277C236.033 101.378 236 102.597 236.373 103.72C236.529 104.019 236.752 104.278 237.024 104.477C237.296 104.676 237.61 104.809 237.942 104.868C238.44 104.929 238.944 104.929 239.442 104.868C242.936 104.718 245.09 104.512 245.078 104.317Z" fill="#263238"/>
<path d="M255.399 105.625C254.838 105.625 255.227 109.367 252.329 112.351C249.431 115.335 245.456 115.335 245.456 115.863C245.456 116.092 246.407 116.494 248.091 116.356C250.26 116.152 252.288 115.189 253.818 113.636C255.279 112.134 256.101 110.121 256.109 108.024C256.167 106.451 255.651 105.579 255.399 105.625Z" fill="#263238"/>
<path d="M253.314 62.7346C253.75 63.6298 257.117 62.8264 261.184 62.8953C265.25 62.9641 268.618 63.7101 269.053 62.8149C269.248 62.3903 268.595 61.5754 267.186 60.8064C265.317 59.8984 263.267 59.4267 261.19 59.4267C259.112 59.4267 257.062 59.8984 255.193 60.8064C253.75 61.495 253.12 62.3099 253.314 62.7346Z" fill="#263238"/>
<path d="M221.137 67.2796C221.813 67.9912 224.093 66.9353 226.922 66.5909C229.752 66.2466 232.214 66.5909 232.65 65.6957C232.856 65.2711 232.398 64.548 231.275 63.9053C229.771 63.1704 228.083 62.8991 226.426 63.1259C224.768 63.3527 223.214 64.0673 221.962 65.1792C221.069 66.0859 220.828 66.9238 221.137 67.2796Z" fill="#263238"/>
<path d="M292.296 85.4825C292.662 85.2759 307.118 79.3307 308.241 94.6643C309.363 109.998 293.842 107.909 293.739 107.473C293.636 107.037 292.296 85.4825 292.296 85.4825Z" fill="#FFBF9D"/>
<path d="M297.977 101.333C298.046 101.333 298.252 101.493 298.722 101.665C299.374 101.892 300.089 101.855 300.715 101.562C302.284 100.85 303.453 98.1878 303.327 95.4218C303.274 94.1061 302.925 92.8193 302.307 91.6572C302.128 91.1904 301.839 90.7742 301.463 90.4443C301.088 90.1144 300.639 89.8808 300.154 89.7635C299.843 89.702 299.522 89.7523 299.245 89.9057C298.968 90.059 298.755 90.3054 298.642 90.6013C298.458 91.0489 298.584 91.3473 298.504 91.3818C298.424 91.4162 298.16 91.1408 298.229 90.5095C298.289 90.1214 298.479 89.7653 298.768 89.4995C299.166 89.152 299.684 88.9748 300.211 89.006C300.847 89.0813 301.453 89.3208 301.969 89.701C302.485 90.0813 302.894 90.5892 303.155 91.1752C303.907 92.4516 304.332 93.8948 304.392 95.3759C304.518 98.4632 303.155 101.47 300.955 102.262C300.555 102.413 300.126 102.472 299.699 102.434C299.273 102.397 298.861 102.263 298.493 102.044C298.034 101.7 297.931 101.355 297.977 101.333Z" fill="#FF9A6C"/>
<path d="M223.44 44.0382C220.885 42.8216 227.793 34.3169 233.749 31.1607C242.673 26.3976 256.533 22.92 265.159 24.7794C275.548 27.0748 284.346 31.5509 290.062 40.5261C295.778 49.5013 298.401 60.2096 298.79 70.849C298.905 74.097 298.79 77.4943 297.233 80.3407C295.32 83.8642 291.356 86.2629 291.837 90.9227C291.952 91.764 291.897 92.6198 291.677 93.4398C291.457 94.2597 291.075 95.0272 290.554 95.6972C287.943 98.8649 284.346 96.2826 282.593 93.5739C278.847 87.8353 278.011 80.662 277.278 73.7986C276.751 68.9323 276.236 63.9512 277.278 59.1766C277.851 56.5713 278.905 54.0807 279.34 51.4525C279.775 48.8242 279.512 45.8975 277.771 43.8775C277.365 43.4538 276.92 43.0695 276.442 42.7298C274.188 40.9966 271.514 39.8978 268.694 39.5467C265.875 39.1956 263.013 39.6051 260.405 40.7327C251.986 44.3366 237.587 49.8456 233.555 47.16C227.77 43.3036 226.258 40.595 226.258 40.595L223.44 44.0382Z" fill="#020D12"/>
<path d="M207.838 178.414C206.956 179.642 194.436 183.808 189.682 191.739C184.928 199.67 180.232 235.272 180.232 235.272L177.208 258.663C183.164 268.097 191.16 280.596 199.637 289.41L207.838 178.414Z" fill="#455A64"/>
<g opacity="0.3">
<path opacity="0.3" d="M301.918 212.754C302.255 217.554 303.163 222.297 304.621 226.882C306.259 231.393 309.134 235.639 313.338 237.969C315.091 238.933 317.073 239.576 318.55 240.953C320.028 242.33 320.921 244.557 322.353 246.175C324.145 247.955 326.355 249.254 328.78 249.951C335.603 252.458 342.844 253.627 350.109 253.394C350.338 250.938 350.349 241.917 350.578 239.45L301.918 212.754Z" fill="black"/>
</g>
<path d="M340.464 161.175C340.464 161.175 356.248 165.858 360.876 172.595C365.504 179.332 373.694 205.454 375.378 210.297C377.062 215.141 375.584 226.366 372.434 234.4C369.284 242.434 363.809 249.423 354.358 250.468C344.908 251.512 329.971 246.049 326.603 242.434C323.235 238.818 321.849 230.819 321.849 230.819C326.046 230.082 330.185 229.042 334.232 227.708" fill="#455A64"/>
<path d="M334.232 227.789L334.037 227.869L333.442 228.087C332.915 228.271 332.124 228.535 331.082 228.845C328.07 229.747 325.011 230.483 321.918 231.048L322.044 230.876C322.428 232.848 322.968 234.786 323.659 236.672C324.036 237.741 324.492 238.781 325.022 239.782C325.566 240.853 326.282 241.826 327.141 242.663C328.111 243.497 329.181 244.206 330.326 244.775C331.536 245.411 332.778 245.982 334.049 246.485C336.775 247.577 339.577 248.467 342.434 249.148C345.517 249.906 348.676 250.31 351.85 250.353C352.676 250.36 353.502 250.322 354.324 250.238C355.153 250.143 355.975 249.997 356.787 249.802C358.451 249.427 360.049 248.804 361.529 247.954C364.611 246.169 367.198 243.64 369.055 240.597C371.019 237.438 372.524 234.014 373.522 230.429C374.338 227.674 374.947 224.862 375.344 222.016C375.77 219.26 375.908 216.468 375.756 213.683C375.666 212.344 375.392 211.023 374.943 209.758C374.508 208.473 374.084 207.199 373.671 205.936L371.209 198.556C369.582 193.759 367.978 189.225 366.375 185.013C364.967 181.094 363.271 177.284 361.3 173.616C360.39 172.057 359.174 170.699 357.726 169.622C356.464 168.616 355.124 167.714 353.717 166.925C351.457 165.633 349.12 164.483 346.718 163.482C344.748 162.667 343.19 162.093 342.136 161.714L340.933 161.29C340.79 161.251 340.652 161.198 340.521 161.129C340.665 161.148 340.808 161.182 340.945 161.232L342.17 161.6C343.247 161.944 344.828 162.483 346.821 163.264C349.243 164.222 351.604 165.33 353.889 166.581C355.321 167.37 356.688 168.272 357.978 169.278C359.469 170.374 360.723 171.759 361.667 173.352C363.682 177.04 365.413 180.877 366.844 184.829C368.482 189.03 370.097 193.575 371.736 198.373C372.549 200.771 373.374 203.239 374.221 205.752C374.645 207.003 375.069 208.277 375.493 209.563C375.964 210.871 376.253 212.238 376.352 213.626C376.515 216.452 376.38 219.287 375.951 222.085C375.546 224.961 374.93 227.804 374.107 230.589C373.084 234.235 371.54 237.714 369.525 240.919C367.615 244.043 364.952 246.635 361.781 248.459C360.253 249.33 358.605 249.968 356.89 250.353C356.056 250.552 355.21 250.702 354.358 250.801C353.511 250.801 352.663 250.95 351.838 250.915C348.62 250.857 345.419 250.433 342.296 249.653C339.414 248.96 336.588 248.051 333.843 246.933C332.564 246.414 331.313 245.828 330.097 245.177C328.918 244.585 327.818 243.849 326.821 242.985C325.934 242.105 325.199 241.086 324.644 239.966C324.113 238.949 323.657 237.894 323.281 236.81C322.61 234.89 322.085 232.922 321.712 230.922V230.773H321.861C325.893 230.073 328.986 229.281 331.082 228.707L333.465 228.03L334.072 227.858C334.163 227.789 334.232 227.777 334.232 227.789Z" fill="#263238"/>
<path d="M363.202 219.33C363.087 219.33 362.721 217.379 361.403 214.464C359.673 210.674 357.257 207.238 354.278 204.329C352.628 202.755 350.761 201.426 348.734 200.381L347.348 199.761C346.89 199.555 346.409 199.463 345.973 199.314C345.149 199.054 344.301 198.877 343.442 198.786L342.869 198.705H341.311C340.773 198.697 340.236 198.743 339.708 198.843C339.247 198.936 338.779 198.986 338.31 198.992C338.744 198.812 339.198 198.685 339.662 198.614C340.195 198.462 340.746 198.381 341.3 198.373H342.331H342.892L343.488 198.441C344.376 198.503 345.255 198.657 346.111 198.901C346.592 199.021 347.066 199.167 347.531 199.337L348.975 199.956C351.076 200.996 353.008 202.351 354.702 203.973C357.746 206.921 360.159 210.459 361.793 214.372C362.084 215.037 362.337 215.72 362.549 216.415C362.725 216.937 362.871 217.47 362.984 218.01C363.098 218.442 363.171 218.884 363.202 219.33Z" fill="#263238"/>
<path d="M371.816 205.133C371.165 203.462 370.368 201.853 369.433 200.324C367.06 196.693 363.507 193.997 359.376 192.691C354.53 191.211 349.822 191.67 346.535 191.98L342.606 192.45C342.129 192.536 341.646 192.579 341.162 192.577C341.615 192.399 342.089 192.28 342.571 192.221C343.488 192.037 344.862 191.796 346.489 191.567C350.831 190.806 355.285 190.994 359.548 192.118C361.882 192.82 364.049 193.992 365.916 195.561C367.446 196.863 368.753 198.406 369.788 200.129C370.496 201.259 371.062 202.474 371.472 203.744C371.64 204.192 371.755 204.658 371.816 205.133V205.133Z" fill="#263238"/>
<path d="M359.914 188.158C353.739 186.699 347.284 186.953 341.242 188.892C342.035 188.374 342.905 187.987 343.82 187.745C345.988 187.077 348.232 186.691 350.498 186.597C352.764 186.516 355.031 186.725 357.245 187.217C358.177 187.395 359.076 187.712 359.914 188.158Z" fill="#263238"/>
<path d="M334.37 165.123C334.461 165.123 334.232 166.741 334.049 169.335C333.568 175.979 334.141 182.657 335.744 189.122L335.332 189.26C334.862 187.94 334.496 186.861 334.255 186.103C334.105 185.734 333.998 185.349 333.934 184.956C334.168 185.312 334.353 185.698 334.484 186.103C334.793 186.826 335.217 187.882 335.744 189.191L335.332 189.317C334.425 186.141 333.823 182.886 333.533 179.596C333.234 176.192 333.264 172.767 333.625 169.37C333.774 168.073 333.946 167.074 334.083 166.305C334.122 165.899 334.218 165.501 334.37 165.123V165.123Z" fill="#263238"/>
<path d="M312.044 135.684C312.044 135.684 303.854 135.684 302.823 145.543C302.032 153.118 302.823 160.463 302.823 163.792C302.823 167.12 301.368 178.907 301.368 178.907C301.368 178.907 295.778 183.877 295.87 189.845C295.961 195.813 300.222 197.672 300.222 197.672C299.508 199.522 299.351 201.541 299.77 203.479C300.189 205.417 301.167 207.189 302.582 208.576C302.582 208.576 300.211 214.073 302.158 217.758C303.281 219.59 305.032 220.949 307.084 221.58C306.748 222.305 306.571 223.094 306.565 223.894C306.56 224.693 306.725 225.485 307.051 226.215C307.377 226.945 307.855 227.596 308.454 228.125C309.052 228.654 309.757 229.048 310.52 229.281C313.272 230.135 316.155 230.489 319.031 230.325L325.148 230.21L330.532 233.195C330.532 233.195 339.765 229.166 339.994 223.714L340.234 218.263C340.234 218.263 337.588 209.31 337.371 206.441C337.153 203.572 339.501 196.72 338.081 193.644C336.661 190.568 331.701 188.755 332.17 184.462C332.64 180.17 331.701 177.782 329.57 175.407C327.439 173.031 318.035 168.302 318.035 168.302C318.035 168.302 315.618 161.416 315.618 156.699C315.618 151.982 320.326 137.486 312.044 135.684Z" fill="#FFBF9D"/>
<path d="M317.565 170.093C316.861 170.67 316.092 171.163 315.274 171.562C313.831 172.411 311.838 173.536 309.547 174.752C307.256 175.969 305.263 177.048 303.819 177.794C303.039 178.266 302.209 178.651 301.345 178.942C302.047 178.358 302.816 177.861 303.636 177.461C305.079 176.612 307.072 175.487 309.363 174.27C311.654 173.054 313.648 171.975 315.091 171.229C315.869 170.756 316.7 170.375 317.565 170.093V170.093Z" fill="#FF9A6C"/>
<path d="M322.949 188.651C322.949 188.651 322.72 188.915 322.227 189.294C321.544 189.832 320.832 190.334 320.097 190.798C317.678 192.351 315.106 193.651 312.422 194.677C309.738 195.72 306.955 196.489 304.117 196.972C302.971 197.145 302.135 197.248 301.528 197.282C301.21 197.342 300.884 197.342 300.566 197.282C300.566 197.19 301.895 197.007 304.002 196.559C306.782 195.974 309.512 195.176 312.17 194.172C314.821 193.144 317.387 191.908 319.845 190.476C320.848 189.815 321.884 189.206 322.949 188.651V188.651Z" fill="#FF9A6C"/>
<path d="M329.982 182.741C330.131 182.798 329.822 183.888 328.837 184.726C327.852 185.564 326.798 185.816 326.763 185.667C326.729 185.518 327.577 185.082 328.436 184.279C329.295 183.475 329.822 182.672 329.982 182.741Z" fill="#FF9A6C"/>
<path d="M326.603 204.892C325.503 205.427 324.351 205.85 323.167 206.154C320.348 206.994 317.479 207.65 314.575 208.117C311.673 208.591 308.741 208.867 305.801 208.943C304.582 209.037 303.357 208.999 302.147 208.828C303.35 208.657 304.563 208.557 305.778 208.53C308.069 208.369 311.104 208.071 314.484 207.531C317.863 206.992 320.876 206.292 323.052 205.741C324.218 205.389 325.404 205.105 326.603 204.892Z" fill="#FF9A6C"/>
<path d="M334.095 203.572C334.269 202.974 334.479 202.388 334.725 201.816C335.179 200.414 335.331 198.931 335.171 197.466C334.989 196.002 334.488 194.595 333.705 193.346C333.334 192.847 332.993 192.325 332.686 191.785C332.686 191.727 333.339 192.152 334.06 193.105C334.987 194.364 335.571 195.842 335.755 197.395C335.94 198.948 335.719 200.523 335.114 201.965C334.644 203.009 334.152 203.572 334.095 203.572Z" fill="#FF9A6C"/>
<path d="M327.061 221.511C326.123 221.857 325.146 222.088 324.152 222.199C321.772 222.575 319.367 222.763 316.958 222.762C314.544 222.757 312.134 222.554 309.753 222.153C308.758 222.041 307.781 221.806 306.843 221.453C307.838 221.471 308.83 221.567 309.81 221.74C312.183 222.009 314.569 222.151 316.958 222.165C319.342 222.16 321.724 222.03 324.094 221.775C325.075 221.608 326.067 221.519 327.061 221.511V221.511Z" fill="#FF9A6C"/>
<path d="M312.491 156.814C312.491 156.882 312.113 157.192 311.345 157.468C310.335 157.806 309.262 157.916 308.204 157.789C307.147 157.662 306.13 157.301 305.228 156.733C304.541 156.286 304.22 155.895 304.266 155.838C305.532 156.475 306.882 156.931 308.275 157.192C309.691 157.268 311.111 157.14 312.491 156.814Z" fill="#FF9A6C"/>
<path d="M335.79 204.226C335.893 204.509 335.94 204.809 335.927 205.11C335.928 205.925 335.832 206.738 335.641 207.531C335.423 208.53 335.045 209.689 334.679 210.975C334.235 212.32 334.09 213.745 334.255 215.152C334.45 216.61 335.538 217.781 335.71 219.261C335.827 220.513 335.507 221.766 334.805 222.808C334.378 223.498 333.883 224.144 333.327 224.736C332.938 225.16 332.697 225.367 332.663 225.344C332.628 225.321 333.453 224.334 334.438 222.601C335.031 221.624 335.284 220.478 335.16 219.342C335.022 218.09 333.923 216.92 333.659 215.256C333.485 213.761 333.653 212.245 334.152 210.825C334.553 209.528 334.965 208.392 335.229 207.382C335.493 206.345 335.68 205.29 335.79 204.226V204.226Z" fill="#FF9A6C"/>
<path d="M338.871 211.434C339.058 211.77 339.189 212.134 339.261 212.513C339.467 213.213 339.742 214.246 339.994 215.531C340.305 217.043 340.489 218.579 340.544 220.122C340.642 222.051 340.289 223.977 339.513 225.746C338.611 227.439 337.417 228.959 335.985 230.233C334.845 231.273 333.632 232.229 332.353 233.091C331.265 233.837 330.349 234.388 329.707 234.744C329.392 234.958 329.049 235.128 328.688 235.249C328.631 235.169 330.005 234.296 332.124 232.747C333.353 231.851 334.524 230.877 335.63 229.832C336.991 228.584 338.13 227.113 338.997 225.482C339.731 223.794 340.08 221.962 340.017 220.122C339.99 218.603 339.852 217.087 339.604 215.588C339.158 213.029 338.78 211.457 338.871 211.434Z" fill="#263238"/>
<path d="M252.444 173.226C251.967 172.945 251.522 172.614 251.115 172.239L247.679 169.358L245.296 167.35C244.889 166.968 244.435 166.64 243.944 166.374C243.707 166.252 243.444 166.189 243.177 166.189C242.91 166.189 242.647 166.252 242.409 166.374C241.424 166.891 240.76 168.153 239.924 169.209C239.087 170.265 238.263 171.504 237.392 172.652C236.017 174.511 234.677 176.29 233.452 177.943L232.707 178.93L232.948 177.714C233.604 174.3 234.559 170.951 235.8 167.705C236.258 166.558 236.67 165.571 236.945 164.939C237.074 164.6 237.248 164.28 237.461 163.987C237.382 164.337 237.271 164.679 237.129 165.008C236.888 165.662 236.533 166.615 236.121 167.832C235 171.094 234.124 174.436 233.497 177.828L232.982 177.599L236.911 172.296L239.443 168.853L240.657 167.235C241.042 166.66 241.561 166.187 242.169 165.858C242.487 165.718 242.833 165.652 243.18 165.666C243.528 165.68 243.867 165.773 244.173 165.938C244.694 166.232 245.175 166.59 245.605 167.005L247.896 169.071L251.241 172.09C251.671 172.436 252.073 172.816 252.444 173.226V173.226Z" fill="#263238"/>
<path d="M300.807 163.528C300.674 163.679 300.524 163.813 300.36 163.929L299.008 164.985L293.957 168.784L277.106 181.214L276.854 181.398L276.682 181.134C276.545 180.927 276.408 180.698 276.259 180.48L267.805 167.097L268.114 167.2C264.857 168.497 261.714 170.067 258.721 171.895C257.644 172.549 256.808 173.042 256.235 173.467C255.957 173.677 255.658 173.858 255.342 174.006C255.585 173.753 255.854 173.526 256.144 173.329C256.694 172.928 257.507 172.342 258.572 171.642C261.527 169.715 264.657 168.07 267.919 166.73L268.114 166.65L268.229 166.822C270.714 170.689 273.635 175.269 276.763 180.158C276.912 180.376 277.049 180.606 277.186 180.812L276.751 180.732L293.716 168.451L298.871 164.79L300.291 163.826C300.623 163.608 300.795 163.505 300.807 163.528Z" fill="#263238"/>
<path d="M197.998 209.173C198.051 209.437 198.074 209.707 198.067 209.976C198.067 210.573 198.067 211.342 198.125 212.272C198.125 214.349 198.228 217.253 198.285 220.811C198.422 228.018 198.709 238.026 199.087 248.987C199.465 259.948 199.682 269.956 199.705 277.175C199.705 280.791 199.705 283.706 199.705 285.726C199.705 286.678 199.705 287.459 199.648 288.021C199.66 288.294 199.641 288.568 199.591 288.836C199.574 288.565 199.574 288.293 199.591 288.021C199.591 287.436 199.591 286.655 199.522 285.726C199.522 283.637 199.43 280.733 199.362 277.187C199.236 269.968 198.938 259.971 198.571 248.999C198.205 238.026 197.976 228.03 197.953 220.811C197.953 217.207 197.953 214.28 197.953 212.272C197.953 211.307 197.953 210.538 197.953 209.976C197.951 209.708 197.966 209.439 197.998 209.173V209.173Z" fill="#263238"/>
<path d="M252.822 312.835C252.784 312.732 252.761 312.624 252.753 312.514C252.753 312.261 252.753 311.94 252.65 311.538C252.558 310.631 252.432 309.38 252.284 307.785C251.963 304.526 251.596 299.751 251.23 293.955C250.863 288.159 250.554 281.135 250.359 273.399C250.164 265.664 250.141 257.136 250.359 248.149C250.577 239.163 250.978 230.704 251.505 222.98C252.032 215.256 252.65 208.3 253.269 202.481C253.887 196.662 254.414 191.945 254.918 188.709C255.147 187.113 255.319 185.874 255.445 184.979C255.514 184.577 255.56 184.256 255.605 184.003C255.611 183.893 255.634 183.784 255.674 183.682C255.692 183.792 255.692 183.904 255.674 184.015C255.674 184.267 255.617 184.588 255.583 184.99C255.479 185.885 255.342 187.136 255.159 188.732C254.769 191.991 254.265 196.697 253.704 202.504C253.143 208.312 252.558 215.279 252.066 223.003C251.573 230.727 251.195 239.232 250.989 248.161C250.783 257.09 250.84 265.595 250.989 273.33C251.138 281.066 251.424 288.021 251.745 293.863C252.066 299.705 252.352 304.445 252.604 307.705C252.707 309.3 252.799 310.563 252.856 311.469C252.856 311.871 252.856 312.192 252.914 312.445C252.894 312.577 252.863 312.708 252.822 312.835V312.835Z" fill="#263238"/>
<path d="M218.686 124.976L217.472 125.779L213.898 128.075C212.317 129.096 210.462 130.554 208.285 132.16C207.14 132.987 206.086 133.985 204.849 134.995L202.981 136.568C202.34 137.119 201.733 137.715 201.08 138.347C194.745 144.268 189.179 150.966 184.516 158.283L182.477 161.565C181.755 162.655 181.206 163.861 180.541 165.008C179.877 166.156 179.224 167.396 178.628 168.658C178.033 169.921 177.483 171.217 176.864 172.526C176.578 173.18 176.257 173.823 175.982 174.5C175.707 175.177 175.467 175.866 175.203 176.566C174.688 177.943 174.138 179.332 173.634 180.767C172.786 183.67 171.71 186.608 171.068 189.742C167.802 203.299 167.257 217.37 169.464 231.14C172.336 248.872 179.747 265.555 190.973 279.561C202.199 293.567 216.857 304.418 233.517 311.056C250.177 317.693 268.27 319.89 286.03 317.432C303.79 314.974 320.61 307.945 334.851 297.031C338.446 294.262 341.866 291.272 345.091 288.079L347.382 285.646C348.161 284.842 348.917 284.027 349.673 283.166L351.85 280.653C352.537 279.781 353.213 278.908 353.9 278.048C364.262 264.676 371.174 248.951 374.027 232.265C374.697 228.391 375.152 224.483 375.39 220.558C375.504 218.618 375.504 216.702 375.573 214.82C375.642 212.937 375.435 211.021 375.367 209.15C375.367 208.22 375.287 207.279 375.252 206.349C375.218 205.42 375.046 204.513 374.954 203.595C374.725 201.77 374.508 199.956 374.29 198.166C374.072 196.376 373.603 194.631 373.259 192.886C372.972 191.157 372.589 189.444 372.114 187.756L370.693 182.787C370.47 181.971 370.199 181.17 369.88 180.388C369.582 179.596 369.284 178.804 368.998 178.023C368.391 176.474 367.852 174.89 367.199 173.433C366.546 171.975 365.836 170.494 365.16 169.06C360.179 158.683 353.496 149.217 345.389 141.055C339.247 134.941 332.394 129.588 324.976 125.113L320.601 122.6C319.94 122.212 319.26 121.859 318.562 121.544L316.637 120.626L313.201 118.996C312.17 118.468 311.15 118.17 310.291 117.848L306.305 116.31L304.953 115.759L306.328 116.253L310.326 117.745C311.196 118.089 312.216 118.388 313.258 118.893L316.695 120.5L318.63 121.418C319.332 121.725 320.016 122.07 320.681 122.451L325.068 124.953C332.534 129.399 339.431 134.741 345.607 140.86C353.762 149.016 360.492 158.487 365.515 168.876C366.191 170.334 366.879 171.791 367.577 173.283C368.276 174.775 368.723 176.348 369.387 177.874L370.281 180.239C370.6 181.025 370.871 181.83 371.094 182.649C371.575 184.302 372.056 185.954 372.537 187.641C373.034 189.335 373.435 191.056 373.74 192.795C374.084 194.539 374.496 196.238 374.794 198.086C375.092 199.934 375.229 201.712 375.458 203.549C375.561 204.467 375.71 205.385 375.768 206.315C375.825 207.245 375.848 208.186 375.882 209.127C375.951 211.009 376.054 212.903 376.1 214.865C376.146 216.828 376.043 218.71 375.917 220.604C374.746 241.614 367.223 261.769 354.347 278.392L352.262 281.009L350.063 283.545C349.353 284.406 348.585 285.232 347.772 286.036L345.481 288.492C342.235 291.704 338.792 294.71 335.171 297.49C320.862 308.45 303.963 315.507 286.121 317.975C268.28 320.443 250.104 318.237 233.366 311.572C216.629 304.907 201.901 294.01 190.617 279.944C179.334 265.879 171.88 249.123 168.983 231.312C167.821 224.133 167.437 216.848 167.838 209.586C168.127 202.887 169.09 196.235 170.713 189.73C171.354 186.585 172.443 183.647 173.29 180.721C173.806 179.297 174.367 177.897 174.894 176.508C175.157 175.82 175.421 175.131 175.673 174.443C175.925 173.754 176.28 173.123 176.566 172.457C177.174 171.149 177.712 169.863 178.342 168.589C178.972 167.315 179.648 166.133 180.278 164.928C180.908 163.723 181.503 162.529 182.225 161.427L184.287 158.145C188.975 150.817 194.584 144.125 200.977 138.232C201.63 137.624 202.237 137.004 202.878 136.453L204.757 134.881C205.994 133.882 207.048 132.895 208.193 132.069C210.427 130.462 212.26 129.027 213.852 128.017L217.461 125.722C218.239 125.217 218.686 124.976 218.686 124.976Z" fill="#263238"/>
</g>
<defs>
<clipPath id="clip0_77_12">
<rect width="509" height="504" fill="white"/>
</clipPath>
</defs>
</svg>
