<svg width="100" height="100" viewBox="0 0 100 100" fill="none" xmlns="http://www.w3.org/2000/svg">
<path fill-rule="evenodd" clip-rule="evenodd" d="M31.1042 4.44169C35.9917 4.21669 37.5501 4.16669 50.0001 4.16669C62.4501 4.16669 64.0084 4.22085 68.8917 4.44169C73.7751 4.66252 77.1084 5.44169 80.0251 6.57085C83.0792 7.72502 85.8501 9.52919 88.1417 11.8625C90.4751 14.15 92.2751 16.9167 93.4251 19.975C94.5584 22.8917 95.3334 26.225 95.5584 31.1C95.7834 35.9959 95.8334 37.5542 95.8334 50C95.8334 62.45 95.7792 64.0084 95.5584 68.8959C95.3376 73.7709 94.5584 77.1042 93.4251 80.0209C92.275 83.0796 90.4721 85.8508 88.1417 88.1417C85.8501 90.475 83.0792 92.275 80.0251 93.425C77.1084 94.5584 73.7751 95.3334 68.9001 95.5584C64.0084 95.7834 62.4501 95.8334 50.0001 95.8334C37.5501 95.8334 35.9917 95.7792 31.1042 95.5584C26.2292 95.3375 22.8959 94.5584 19.9792 93.425C16.9206 92.2749 14.1493 90.4719 11.8584 88.1417C9.52666 85.8528 7.72223 83.0829 6.57091 80.025C5.44175 77.1083 4.66675 73.775 4.44175 68.9C4.21675 64.0042 4.16675 62.4459 4.16675 50C4.16675 37.55 4.22091 35.9917 4.44175 31.1084C4.66258 26.225 5.44175 22.8917 6.57091 19.975C7.72393 16.917 9.52974 14.1472 11.8626 11.8584C14.1502 9.52711 16.9187 7.7227 19.9751 6.57085C22.8917 5.44169 26.2251 4.66669 31.1001 4.44169H31.1042ZM68.5209 12.6917C63.6876 12.4709 62.2376 12.425 50.0001 12.425C37.7626 12.425 36.3126 12.4709 31.4792 12.6917C27.0084 12.8959 24.5834 13.6417 22.9667 14.2709C20.8292 15.1042 19.3001 16.0917 17.6959 17.6959C16.1753 19.1752 15.005 20.9762 14.2709 22.9667C13.6417 24.5834 12.8959 27.0084 12.6917 31.4792C12.4709 36.3125 12.4251 37.7625 12.4251 50C12.4251 62.2375 12.4709 63.6875 12.6917 68.5208C12.8959 72.9917 13.6417 75.4167 14.2709 77.0334C15.0042 79.0209 16.1751 80.825 17.6959 82.3042C19.1751 83.825 20.9792 84.9959 22.9667 85.7292C24.5834 86.3584 27.0084 87.1042 31.4792 87.3084C36.3126 87.5292 37.7584 87.575 50.0001 87.575C62.2417 87.575 63.6876 87.5292 68.5209 87.3084C72.9917 87.1042 75.4167 86.3584 77.0334 85.7292C79.1709 84.8959 80.7001 83.9084 82.3042 82.3042C83.8251 80.825 84.9959 79.0209 85.7292 77.0334C86.3584 75.4167 87.1042 72.9917 87.3084 68.5208C87.5292 63.6875 87.5751 62.2375 87.5751 50C87.5751 37.7625 87.5292 36.3125 87.3084 31.4792C87.1042 27.0084 86.3584 24.5834 85.7292 22.9667C84.8959 20.8292 83.9084 19.3 82.3042 17.6959C80.8248 16.1753 79.0238 15.0051 77.0334 14.2709C75.4167 13.6417 72.9917 12.8959 68.5209 12.6917V12.6917ZM44.1459 64.1292C47.4153 65.4901 51.0558 65.6738 54.4456 64.6489C57.8354 63.6239 60.7642 61.4538 62.7318 58.5094C64.6994 55.5649 65.5836 52.0286 65.2336 48.5046C64.8836 44.9806 63.3209 41.6874 60.8126 39.1875C59.2136 37.5895 57.2801 36.3659 55.1515 35.6048C53.0228 34.8437 50.7519 34.564 48.5021 34.7859C46.2524 35.0078 44.0799 35.7258 42.1409 36.8881C40.202 38.0504 38.5448 39.6281 37.2888 41.5077C36.0328 43.3873 35.2092 45.5221 34.8772 47.7582C34.5453 49.9943 34.7132 52.2762 35.369 54.4397C36.0248 56.6031 37.1521 58.5942 38.6697 60.2697C40.1874 61.9452 42.0577 63.2633 44.1459 64.1292ZM33.3417 33.3417C35.5293 31.1541 38.1264 29.4188 40.9847 28.2349C43.8429 27.0509 46.9063 26.4416 50.0001 26.4416C53.0938 26.4416 56.1573 27.0509 59.0155 28.2349C61.8737 29.4188 64.4708 31.1541 66.6584 33.3417C68.846 35.5293 70.5813 38.1264 71.7652 40.9846C72.9492 43.8428 73.5585 46.9063 73.5585 50C73.5585 53.0938 72.9492 56.1572 71.7652 59.0154C70.5813 61.8737 68.846 64.4707 66.6584 66.6584C62.2403 71.0764 56.2482 73.5585 50.0001 73.5585C43.752 73.5585 37.7598 71.0764 33.3417 66.6584C28.9237 62.2403 26.4416 56.2481 26.4416 50C26.4416 43.7519 28.9237 37.7597 33.3417 33.3417V33.3417ZM78.7834 29.95C79.3255 29.4386 79.7595 28.8237 80.0597 28.1416C80.3599 27.4595 80.5201 26.7241 80.531 25.9789C80.5418 25.2337 80.4031 24.494 80.1229 23.8034C79.8428 23.1128 79.4269 22.4855 78.8999 21.9585C78.373 21.4316 77.7456 21.0157 77.055 20.7355C76.3645 20.4553 75.6247 20.3166 74.8795 20.3274C74.1344 20.3383 73.399 20.4986 72.7169 20.7988C72.0347 21.0989 71.4198 21.5329 70.9084 22.075C69.9139 23.1293 69.3694 24.5297 69.3905 25.9789C69.4116 27.4281 69.9967 28.812 71.0216 29.8369C72.0464 30.8617 73.4303 31.4468 74.8795 31.4679C76.3287 31.4891 77.7291 30.9446 78.7834 29.95V29.95Z" fill="black"/>
</svg>
