<svg width="50" height="50" viewBox="0 0 50 50" fill="none" xmlns="http://www.w3.org/2000/svg">
<path d="M41.6667 22.9145H45.8333C45.8333 12.227 37.7646 4.16663 27.0625 4.16663V8.33329C35.525 8.33329 41.6667 14.4645 41.6667 22.9145Z" fill="black"/>
<path d="M27.0834 16.6667C31.4647 16.6667 33.3334 18.5355 33.3334 22.9167H37.5001C37.5001 16.198 33.8022 12.5 27.0834 12.5V16.6667ZM34.2126 28.0063C33.8123 27.6425 33.2862 27.4484 32.7455 27.4651C32.2048 27.4818 31.6918 27.708 31.3147 28.0959L26.3293 33.223C25.1293 32.9938 22.7168 32.2417 20.2334 29.7646C17.7501 27.2792 16.998 24.8605 16.7751 23.6688L21.898 18.6813C22.2864 18.3045 22.5129 17.7913 22.5296 17.2505C22.5463 16.7096 22.3519 16.1835 21.9876 15.7834L14.2897 7.3188C13.9252 6.91746 13.4186 6.67402 12.8775 6.64017C12.3364 6.60633 11.8034 6.78476 11.3918 7.13755L6.87093 11.0146C6.51075 11.3761 6.29576 11.8572 6.26677 12.3667C6.23552 12.8875 5.63968 25.225 15.2063 34.7959C23.5522 43.1396 34.0063 43.75 36.8855 43.75C37.3063 43.75 37.5647 43.7375 37.6334 43.7334C38.1428 43.7049 38.6237 43.4889 38.9834 43.1271L42.8584 38.6042C43.2115 38.1928 43.3903 37.66 43.3568 37.1189C43.3234 36.5778 43.0803 36.0711 42.6793 35.7063L34.2126 28.0063V28.0063Z" fill="black"/>
</svg>
