<svg width="99" height="100" viewBox="0 0 99 100" fill="none" xmlns="http://www.w3.org/2000/svg">
<g clip-path="url(#clip0_101_11)">
<path d="M26.1248 85.6459L27.7406 86.454C34.4742 90.4938 42.0151 92.3791 49.5564 92.3791C73.2572 92.3791 92.6487 72.9876 92.6487 49.2869C92.6487 37.9753 88.0699 26.9328 79.9904 18.8529C71.9105 10.773 61.1371 6.19458 49.5564 6.19458C25.8556 6.19458 6.46375 25.5861 6.73324 49.5564C6.73324 57.6359 9.15718 65.4467 13.197 72.1795L14.2742 73.7957L9.96529 89.6861L26.1248 85.6459Z" fill="#00E676"/>
<path d="M84.5687 14.5436C75.4116 5.11737 62.7533 0 49.8255 0C22.3544 0 0.269498 22.3541 0.53861 49.556C0.53861 58.1745 2.96255 66.5239 7.0027 74.0649L0 99.651L26.1247 92.9178C33.3965 96.9579 41.4761 98.8432 49.5564 98.8432C76.7583 98.8432 98.8432 76.4888 98.8432 49.2873C98.8432 36.09 93.7259 23.7008 84.5691 14.5436H84.5687ZM49.8255 90.4942C42.5537 90.4942 35.2819 88.6093 29.0873 84.8386L27.4714 84.0305L11.8506 88.0703L15.8903 72.7189L14.8131 71.1027C2.96255 51.9807 8.61853 26.6633 28.01 14.8127C47.4015 2.96255 72.449 8.61853 84.2996 28.01C96.1498 47.4015 90.4938 72.449 71.1027 84.2996C64.9077 88.3394 57.3668 90.4938 49.8255 90.4938V90.4942ZM73.5263 60.5992L70.5637 59.2525C70.5637 59.2525 66.2548 57.3672 63.5614 56.0205C63.2919 56.0205 63.0228 55.751 62.7533 55.751C61.9452 55.751 61.4066 56.0205 60.868 56.29C60.868 56.29 60.5988 56.5591 56.8282 60.8683C56.5587 61.4069 56.0201 61.6764 55.4815 61.6764H55.212C54.9429 61.6764 54.4042 61.4069 54.1347 61.1378L52.788 60.5992C49.8255 59.2525 47.1324 57.6363 44.9776 55.4819C44.439 54.9432 43.6309 54.4046 43.0923 53.866C41.2069 51.9807 39.3216 49.8259 37.9753 47.4019L37.7058 46.8633C37.4367 46.5938 37.4367 46.3247 37.1672 45.7861C37.1672 45.2475 37.1672 44.7089 37.4367 44.4394C37.4367 44.4394 38.5139 43.0927 39.3216 42.2849C39.8606 41.7459 40.1297 40.9382 40.6683 40.3996C41.2069 39.5915 41.4764 38.5143 41.2069 37.7062C40.9378 36.3595 37.7058 29.0876 36.8981 27.4718C36.3591 26.6637 35.8208 26.3946 35.0127 26.1251H32.0502C31.5112 26.1251 30.973 26.3946 30.434 26.3946L30.1645 26.6637C29.6259 26.9332 29.0873 27.4718 28.5486 27.7409C28.01 28.2799 27.7405 28.8181 27.2019 29.3571C25.3166 31.7811 24.2394 34.7436 24.2394 37.7062C24.2394 39.8606 24.778 42.0154 25.5861 43.9008L25.8556 44.7089C28.2795 49.8259 31.5112 54.4046 35.8208 58.4444L36.8981 59.5216C37.7058 60.3297 38.5139 60.8683 39.0525 61.6761C44.7085 66.5243 51.1722 70.0255 58.444 71.9108C59.2521 72.1799 60.3293 72.1799 61.1374 72.4494H63.8305C65.1772 72.4494 66.7931 71.9108 67.8707 71.3722C68.6784 70.8336 69.217 70.8336 69.7556 70.295L70.2946 69.756C70.8332 69.2174 71.3718 68.9483 71.9104 68.4097C72.449 67.871 72.9876 67.3324 73.2571 66.7934C73.7957 65.7162 74.0649 64.3695 74.3344 63.0232V61.1378C74.3344 61.1378 74.0649 60.8683 73.5263 60.5992V60.5992Z" fill="white"/>
</g>
<defs>
<clipPath id="clip0_101_11">
<rect width="98.8417" height="100" fill="white"/>
</clipPath>
</defs>
</svg>
