<svg id="Layer_1" data-name="Layer 1" xmlns="http://www.w3.org/2000/svg" viewBox="0 0 346.84 98.1"><defs><style>.cls-1{font-size:62px;font-family:MyriadPro-Bold, Myriad Pro;font-weight:700;letter-spacing:-0.05em;}.cls-1,.cls-4{fill:#fdc201;}.cls-2{letter-spacing:-0.04em;}.cls-3{letter-spacing:-0.04em;}</style></defs><title>krav</title><text class="cls-1" transform="translate(24.38 82.6)">K<tspan class="cls-2" x="34.97" y="0">R</tspan><tspan class="cls-3" x="69.19" y="0">A</tspan><tspan x="107.13" y="0">Z MEDIA</tspan></text><path class="cls-4" d="M252.69,202.82l-25.11-1.95a5.24,5.24,0,0,0-3.43.94l-20.57,14.4a2.07,2.07,0,0,0,1,3.74l5.33.42a11.78,11.78,0,0,0-.8,4.9,2.67,2.67,0,0,0-.92,2.81,2.62,2.62,0,0,0,1.5,1.71l1.28,12.6a1.34,1.34,0,0,0,1.69,1.16l4.71-1.28a1.34,1.34,0,0,0,.86-1.86L213,228.91a2.8,2.8,0,0,0,.42-2.24,2.63,2.63,0,0,0-1.58-1.73,9.08,9.08,0,0,1,1-4.36l16.93,1.32a5.3,5.3,0,0,0,3.43-.94l20.63-14.43a2,2,0,0,0-1.08-3.71ZM234.6,223.18a7.34,7.34,0,0,1-2.39,1.14,8,8,0,0,1-2.71.25l-12.89-1,1.95,11.87c.91,3.35,8.53,4.17,17.18,1.81,8.5-2.32,14.79-6.94,13.88-10.28l-4.35-11.23Z" transform="translate(-202.72 -200.85)"/></svg>