<svg id="Layer_1" data-name="Layer 1" xmlns="http://www.w3.org/2000/svg" viewBox="0 0 346.84 105.31"><defs><style>.cls-1{font-size:62px;font-family:MyriadPro-Bold, Myriad Pro;font-weight:700;letter-spacing:-0.05em;}.cls-1,.cls-4{fill:#fdc201;}.cls-2{letter-spacing:-0.04em;}.cls-3{letter-spacing:-0.04em;}.cls-5{font-size:12px;fill:#fff;font-family:UniSansHeavyCAPS, Uni Sans;}.cls-6{letter-spacing:-0.08em;}.cls-7{letter-spacing:0em;}.cls-8{letter-spacing:-0.03em;}.cls-9{letter-spacing:-0.02em;}.cls-10{letter-spacing:-0.01em;}.cls-11{letter-spacing:-0.03em;}</style></defs><title>logo_with_motto</title><text class="cls-1" transform="translate(24.38 82.6)">K<tspan class="cls-2" x="34.97" y="0">R</tspan><tspan class="cls-3" x="69.19" y="0">A</tspan><tspan x="107.13" y="0">Z MEDIA</tspan></text><path class="cls-4" d="M252.69,202.82l-25.11-1.95a5.24,5.24,0,0,0-3.43.94l-20.57,14.4a2.07,2.07,0,0,0,1,3.74l5.33.42a11.78,11.78,0,0,0-.8,4.9,2.67,2.67,0,0,0-.92,2.81,2.62,2.62,0,0,0,1.5,1.71l1.28,12.6a1.34,1.34,0,0,0,1.69,1.16l4.71-1.28a1.34,1.34,0,0,0,.86-1.86L213,228.91a2.8,2.8,0,0,0,.42-2.24,2.63,2.63,0,0,0-1.58-1.73,9.08,9.08,0,0,1,1-4.36l16.93,1.32a5.3,5.3,0,0,0,3.43-.94l20.63-14.43a2,2,0,0,0-1.08-3.71ZM234.6,223.18a7.34,7.34,0,0,1-2.39,1.14,8,8,0,0,1-2.71.25l-12.89-1,1.95,11.87c.91,3.35,8.53,4.17,17.18,1.81,8.5-2.32,14.79-6.94,13.88-10.28l-4.35-11.23Z" transform="translate(-202.72 -200.85)"/><text class="cls-5" transform="translate(30.44 102.27) scale(1.4 1)">bringing cre<tspan class="cls-6" x="77.4" y="0">a</tspan><tspan class="cls-7" x="84.26" y="0">tive</tspan><tspan class="cls-8" x="109.7" y="0"> </tspan><tspan x="111.54" y="0">visions</tspan><tspan class="cls-9" x="156.02" y="0"> </tspan><tspan class="cls-10" x="157.95" y="0">t</tspan><tspan x="164.9" y="0">o realit</tspan><tspan class="cls-11" x="214.63" y="0">y</tspan></text></svg>