<svg width="100" height="100" viewBox="0 0 100 100" fill="none" xmlns="http://www.w3.org/2000/svg">
<g clip-path="url(#clip0_101_14)">
<path d="M85.2042 85.2059H70.3874V62.0016C70.3874 56.4684 70.2886 49.3453 62.6812 49.3453C54.964 49.3453 53.7831 55.3742 53.7831 61.5988V85.2043H38.9667V37.4871H53.1905V44.0082H53.3897C54.8132 41.5742 56.8702 39.5719 59.3416 38.2145C61.8131 36.8571 64.6064 36.1955 67.4241 36.3C82.4417 36.3 85.2105 46.1781 85.2105 59.0289L85.2042 85.2059V85.2059ZM22.2479 30.9648C17.4991 30.9656 13.6487 27.1164 13.6479 22.3676C13.6472 17.6188 17.496 13.7684 22.2448 13.7676C26.9937 13.7664 30.844 17.6156 30.8448 22.3645C30.8452 24.6449 29.9397 26.8322 28.3275 28.4451C26.7153 30.0579 24.5284 30.9643 22.2479 30.9648V30.9648ZM29.6565 85.2062H14.8241V37.4871H29.6562V85.2059L29.6565 85.2062ZM92.5909 0.00703394H7.37881C3.35146 -0.0382786 0.0487305 3.18789 -0.000488281 7.21524V92.7828C0.047168 96.8121 3.34951 100.041 7.37842 99.9992H92.5909C96.6284 100.049 99.9437 96.8199 99.9995 92.7828V7.2086C99.9421 3.17344 96.6265 -0.0523411 92.5909 0.000393317" fill="#0A66C2"/>
</g>
<defs>
<clipPath id="clip0_101_14">
<rect width="100" height="100" fill="white"/>
</clipPath>
</defs>
</svg>
